<svg width="186" height="116" viewBox="0 0 186 116" fill="none" xmlns="http://www.w3.org/2000/svg">
<rect x="183.75" y="1.75" width="112" height="182" transform="rotate(90 183.75 1.75)" fill="#D9E8D6"/>
<rect x="183.75" y="1.75" width="112" height="182" transform="rotate(90 183.75 1.75)" stroke="black" stroke-width="3.5"/>
<rect x="183.75" y="1.75" width="112" height="42" transform="rotate(90 183.75 1.75)" fill="#F7941D" stroke="black" stroke-width="3.5"/>
<path d="M120.876 41.017L120.863 41.056L114.636 46.763H120.46L120.668 48.037H111.542L111.555 47.998L117.782 42.291H111.75L111.594 41.017H120.876ZM120.876 53.5879L111.802 58.1249L111.542 56.8509L114.61 55.3299V51.7419L111.542 50.2339L111.802 49.0379L120.876 53.5619V53.5879ZM115.78 52.2749V54.8099L118.341 53.5359L115.78 52.2749ZM120.876 60.2698V60.2958L114.077 63.3768L120.876 66.4188V66.4448L111.75 68.2648L111.594 67.0298L117.236 65.9508V65.9248L111.646 63.3898V63.3638L117.236 60.7638V60.7378L111.594 59.6848L111.75 58.4628L120.876 60.2698ZM120.668 74.444L119.498 74.717V70.96H116.976V73.963H115.806V70.96H112.92V75.003L111.75 74.639V69.686H120.668V74.444Z" fill="black"/>
<path d="M26.876 43.2189V43.2449L19.609 46.2739L26.876 49.2769V49.3029L17.75 51.0969L17.646 50.2909L24.25 49.0169V48.9909L17.542 46.2869V46.2609L24.25 43.4529V43.4269L17.646 42.2049L17.75 41.3989L26.876 43.2189Z" fill="black"/>
<path fill-rule="evenodd" clip-rule="evenodd" d="M22.75 51.1457L22.75 41.3539L22.05 41.2081L22.05 51.2916L22.75 51.1457ZM21.25 51.4583L21.25 41.0414L20.55 40.8955L20.55 51.6042L21.25 51.4583Z" fill="black"/>
<path d="M26.876 56.878V56.904H17.75L17.646 55.63H24.653L23.522 53.81L24.328 53.355L26.876 56.878ZM24.601 66.2206C24.3497 66.2206 24.12 66.1816 23.912 66.1036C23.704 66.0343 23.5133 65.9346 23.34 65.8046C23.1753 65.6833 23.0237 65.536 22.885 65.3626C22.7463 65.198 22.6207 65.016 22.508 64.8166C22.2913 65.3453 21.9837 65.77 21.585 66.0906C21.1863 66.4113 20.688 66.5716 20.09 66.5716C19.6653 66.5716 19.2927 66.4893 18.972 66.3246C18.66 66.1686 18.3957 65.9433 18.179 65.6486C17.971 65.3626 17.815 65.0116 17.711 64.5956C17.5983 64.1883 17.542 63.7333 17.542 63.2306C17.542 62.9013 17.5983 62.5676 17.711 62.2296C17.8237 61.8916 17.984 61.584 18.192 61.3066C18.4087 61.038 18.6643 60.817 18.959 60.6436C19.2537 60.4703 19.583 60.3836 19.947 60.3836C20.571 60.3836 21.0693 60.531 21.442 60.8256C21.8147 61.1203 22.1267 61.5363 22.378 62.0736C22.612 61.6316 22.9023 61.285 23.249 61.0336C23.5957 60.7823 23.977 60.6566 24.393 60.6566C24.7657 60.6566 25.1037 60.726 25.407 60.8646C25.719 61.0033 25.9833 61.1983 26.2 61.4496C26.4167 61.701 26.5813 62 26.694 62.3466C26.8153 62.6933 26.876 63.0746 26.876 63.4906C26.876 63.846 26.824 64.1883 26.72 64.5176C26.6247 64.847 26.4817 65.1373 26.291 65.3886C26.1003 65.64 25.862 65.8393 25.576 65.9866C25.2987 66.1426 24.9737 66.2206 24.601 66.2206ZM22.833 63.5426C23.197 64.548 23.7127 65.0506 24.38 65.0506C24.796 65.0506 25.121 64.9033 25.355 64.6086C25.589 64.314 25.706 63.911 25.706 63.3996C25.706 63.1916 25.68 62.9923 25.628 62.8016C25.576 62.611 25.498 62.442 25.394 62.2946C25.29 62.156 25.1643 62.0433 25.017 61.9566C24.8697 61.87 24.705 61.8266 24.523 61.8266C24.107 61.8266 23.7603 61.9653 23.483 62.2426C23.2057 62.52 22.989 62.9533 22.833 63.5426ZM18.712 63.4516C18.712 64.0496 18.8333 64.5046 19.076 64.8166C19.3187 65.1373 19.648 65.2976 20.064 65.2976C20.3933 65.2976 20.6663 65.224 20.883 65.0766C21.1083 64.938 21.3077 64.6866 21.481 64.3226C21.5503 64.1926 21.6153 64.041 21.676 63.8676C21.7367 63.6943 21.8103 63.508 21.897 63.3086C21.7237 62.7886 21.4983 62.3813 21.221 62.0866C20.9523 61.8006 20.623 61.6576 20.233 61.6576C19.739 61.6576 19.362 61.818 19.102 62.1386C18.842 62.468 18.712 62.9056 18.712 63.4516ZM17.542 71.0913C17.542 70.4933 17.6807 69.9863 17.958 69.5703C18.244 69.1543 18.608 68.8206 19.05 68.5693C19.5007 68.3179 20.0033 68.1359 20.558 68.0233C21.1213 67.9106 21.676 67.8543 22.222 67.8543C22.5513 67.8543 22.8937 67.8759 23.249 67.9193C23.6043 67.9626 23.9553 68.0319 24.302 68.1273C24.6487 68.2313 24.978 68.3656 25.29 68.5303C25.602 68.6949 25.875 68.8943 26.109 69.1283C26.343 69.3709 26.5293 69.6526 26.668 69.9733C26.8067 70.2939 26.876 70.6666 26.876 71.0913C26.876 71.6979 26.733 72.2049 26.447 72.6123C26.161 73.0283 25.7927 73.3619 25.342 73.6133C24.8913 73.8733 24.3887 74.0553 23.834 74.1593C23.2793 74.2719 22.729 74.3283 22.183 74.3283C21.689 74.3283 21.169 74.2763 20.623 74.1723C20.0857 74.0683 19.5873 73.8906 19.128 73.6393C18.6687 73.3966 18.2873 73.0673 17.984 72.6513C17.6893 72.2353 17.542 71.7153 17.542 71.0913ZM18.712 71.0913C18.712 71.7413 19.011 72.2309 19.609 72.5603C20.2157 72.8896 21.0823 73.0543 22.209 73.0543C23.3183 73.0543 24.1763 72.8896 24.783 72.5603C25.3983 72.2396 25.706 71.7456 25.706 71.0783C25.706 70.4716 25.4157 69.9949 24.835 69.6483C24.263 69.3016 23.3877 69.1283 22.209 69.1283C21.0823 69.1283 20.2157 69.2929 19.609 69.6223C19.011 69.9516 18.712 70.4413 18.712 71.0913Z" fill="black"/>
</svg>
