<svg width="186" height="116" viewBox="0 0 186 116" fill="none" xmlns="http://www.w3.org/2000/svg">
<rect x="183.75" y="1.75" width="112" height="182" transform="rotate(90 183.75 1.75)" fill="#D9E8D6"/>
<rect x="183.75" y="1.75" width="112" height="182" transform="rotate(90 183.75 1.75)" stroke="black" stroke-width="3.5"/>
<rect x="183.75" y="1.75" width="112" height="42" transform="rotate(90 183.75 1.75)" fill="#F7941D" stroke="black" stroke-width="3.5"/>
<path d="M120.876 41.017L120.863 41.056L114.636 46.763H120.46L120.668 48.037H111.542L111.555 47.998L117.782 42.291H111.75L111.594 41.017H120.876ZM120.876 53.5879L111.802 58.1249L111.542 56.8509L114.61 55.3299V51.7419L111.542 50.2339L111.802 49.0379L120.876 53.5619V53.5879ZM115.78 52.2749V54.8099L118.341 53.5359L115.78 52.2749ZM120.876 60.2698V60.2958L114.077 63.3768L120.876 66.4188V66.4448L111.75 68.2648L111.594 67.0298L117.236 65.9508V65.9248L111.646 63.3898V63.3638L117.236 60.7638V60.7378L111.594 59.6848L111.75 58.4628L120.876 60.2698ZM120.668 74.444L119.498 74.717V70.96H116.976V73.963H115.806V70.96H112.92V75.003L111.75 74.639V69.686H120.668V74.444Z" fill="black"/>
<path d="M26.876 43.2189V43.2449L19.609 46.2739L26.876 49.2769V49.3029L17.75 51.0969L17.646 50.2909L24.25 49.0169V48.9909L17.542 46.2869V46.2609L24.25 43.4529V43.4269L17.646 42.2049L17.75 41.3989L26.876 43.2189Z" fill="black"/>
<path fill-rule="evenodd" clip-rule="evenodd" d="M22.75 51.1457L22.75 41.3539L22.05 41.2081L22.05 51.2916L22.75 51.1457ZM21.25 51.4583L21.25 41.0414L20.55 40.8955L20.55 51.6042L21.25 51.4583Z" fill="black"/>
<path d="M24.094 58.737C23.7473 58.737 23.4007 58.672 23.054 58.542C22.7073 58.412 22.3693 58.2473 22.04 58.048C21.7193 57.8487 21.4117 57.6277 21.117 57.385C20.8223 57.1423 20.5537 56.9083 20.311 56.683L18.92 55.37V58.88L17.75 58.646V52.809L21.884 56.371C22.0313 56.501 22.196 56.631 22.378 56.761C22.56 56.891 22.7463 57.008 22.937 57.112C23.1363 57.216 23.3313 57.2983 23.522 57.359C23.7213 57.4283 23.912 57.463 24.094 57.463C24.5967 57.463 24.991 57.307 25.277 56.995C25.563 56.683 25.706 56.267 25.706 55.747C25.706 55.4957 25.6627 55.266 25.576 55.058C25.4893 54.85 25.368 54.668 25.212 54.512C25.0647 54.356 24.8913 54.2347 24.692 54.148C24.4927 54.0613 24.2803 54.018 24.055 54.018C23.483 54.018 23.0323 54.161 22.703 54.447C22.3823 54.7417 22.2003 55.11 22.157 55.552L21.143 54.746C21.325 54.174 21.6717 53.7147 22.183 53.368C22.6943 53.0213 23.3313 52.848 24.094 52.848C24.5013 52.848 24.874 52.9217 25.212 53.069C25.55 53.225 25.8403 53.4373 26.083 53.706C26.3343 53.9747 26.5293 54.291 26.668 54.655C26.8067 55.019 26.876 55.4177 26.876 55.851C26.876 56.2583 26.811 56.6353 26.681 56.982C26.551 57.3373 26.3647 57.645 26.122 57.905C25.8793 58.165 25.5847 58.3687 25.238 58.516C24.9 58.6633 24.5187 58.737 24.094 58.737ZM17.542 63.4776C17.542 62.8796 17.6807 62.3726 17.958 61.9566C18.244 61.5406 18.608 61.207 19.05 60.9556C19.5007 60.7043 20.0033 60.5223 20.558 60.4096C21.1213 60.297 21.676 60.2406 22.222 60.2406C22.5513 60.2406 22.8937 60.2623 23.249 60.3056C23.6043 60.349 23.9553 60.4183 24.302 60.5136C24.6487 60.6176 24.978 60.752 25.29 60.9166C25.602 61.0813 25.875 61.2806 26.109 61.5146C26.343 61.7573 26.5293 62.039 26.668 62.3596C26.8067 62.6803 26.876 63.053 26.876 63.4776C26.876 64.0843 26.733 64.5913 26.447 64.9986C26.161 65.4146 25.7927 65.7483 25.342 65.9996C24.8913 66.2596 24.3887 66.4416 23.834 66.5456C23.2793 66.6583 22.729 66.7146 22.183 66.7146C21.689 66.7146 21.169 66.6626 20.623 66.5586C20.0857 66.4546 19.5873 66.277 19.128 66.0256C18.6687 65.783 18.2873 65.4536 17.984 65.0376C17.6893 64.6216 17.542 64.1016 17.542 63.4776ZM18.712 63.4776C18.712 64.1276 19.011 64.6173 19.609 64.9466C20.2157 65.276 21.0823 65.4406 22.209 65.4406C23.3183 65.4406 24.1763 65.276 24.783 64.9466C25.3983 64.626 25.706 64.132 25.706 63.4646C25.706 62.858 25.4157 62.3813 24.835 62.0346C24.263 61.688 23.3877 61.5146 22.209 61.5146C21.0823 61.5146 20.2157 61.6793 19.609 62.0086C19.011 62.338 18.712 62.8276 18.712 63.4776ZM17.542 71.0913C17.542 70.4933 17.6807 69.9863 17.958 69.5703C18.244 69.1543 18.608 68.8206 19.05 68.5693C19.5007 68.3179 20.0033 68.1359 20.558 68.0233C21.1213 67.9106 21.676 67.8543 22.222 67.8543C22.5513 67.8543 22.8937 67.8759 23.249 67.9193C23.6043 67.9626 23.9553 68.0319 24.302 68.1273C24.6487 68.2313 24.978 68.3656 25.29 68.5303C25.602 68.6949 25.875 68.8943 26.109 69.1283C26.343 69.3709 26.5293 69.6526 26.668 69.9733C26.8067 70.2939 26.876 70.6666 26.876 71.0913C26.876 71.6979 26.733 72.2049 26.447 72.6123C26.161 73.0283 25.7927 73.3619 25.342 73.6133C24.8913 73.8733 24.3887 74.0553 23.834 74.1593C23.2793 74.2719 22.729 74.3283 22.183 74.3283C21.689 74.3283 21.169 74.2763 20.623 74.1723C20.0857 74.0683 19.5873 73.8906 19.128 73.6393C18.6687 73.3966 18.2873 73.0673 17.984 72.6513C17.6893 72.2353 17.542 71.7153 17.542 71.0913ZM18.712 71.0913C18.712 71.7413 19.011 72.2309 19.609 72.5603C20.2157 72.8896 21.0823 73.0543 22.209 73.0543C23.3183 73.0543 24.1763 72.8896 24.783 72.5603C25.3983 72.2396 25.706 71.7456 25.706 71.0783C25.706 70.4716 25.4157 69.9949 24.835 69.6483C24.263 69.3016 23.3877 69.1283 22.209 69.1283C21.0823 69.1283 20.2157 69.2929 19.609 69.6223C19.011 69.9516 18.712 70.4413 18.712 71.0913Z" fill="black"/>
</svg>
