<svg width="186" height="116" viewBox="0 0 186 116" fill="none" xmlns="http://www.w3.org/2000/svg">
<rect x="183.75" y="1.75" width="112" height="182" transform="rotate(90 183.75 1.75)" fill="#D9E8D6"/>
<rect x="183.75" y="1.75" width="112" height="182" transform="rotate(90 183.75 1.75)" stroke="black" stroke-width="3.5"/>
<rect x="183.75" y="1.75" width="112" height="42" transform="rotate(90 183.75 1.75)" fill="#D93A96" stroke="black" stroke-width="3.5"/>
<path d="M120.876 41.017L120.863 41.056L114.636 46.763H120.46L120.668 48.037H111.542L111.555 47.998L117.782 42.291H111.75L111.594 41.017H120.876ZM120.876 53.5879L111.802 58.1249L111.542 56.8509L114.61 55.3299V51.7419L111.542 50.2339L111.802 49.0379L120.876 53.5619V53.5879ZM115.78 52.2749V54.8099L118.341 53.5359L115.78 52.2749ZM120.876 60.2698V60.2958L114.077 63.3768L120.876 66.4188V66.4448L111.75 68.2648L111.594 67.0298L117.236 65.9508V65.9248L111.646 63.3898V63.3638L117.236 60.7638V60.7378L111.594 59.6848L111.75 58.4628L120.876 60.2698ZM120.668 74.444L119.498 74.717V70.96H116.976V73.963H115.806V70.96H112.92V75.003L111.75 74.639V69.686H120.668V74.444Z" fill="black"/>
<path d="M26.876 43.2189V43.2449L19.609 46.2739L26.876 49.2769V49.3029L17.75 51.0969L17.646 50.2909L24.25 49.0169V48.9909L17.542 46.2869V46.2609L24.25 43.4529V43.4269L17.646 42.2049L17.75 41.3989L26.876 43.2189Z" fill="black"/>
<path fill-rule="evenodd" clip-rule="evenodd" d="M22.75 51.1457L22.75 41.3539L22.05 41.2081L22.05 51.2916L22.75 51.1457ZM21.25 51.4583L21.25 41.0414L20.55 40.8955L20.55 51.6042L21.25 51.4583Z" fill="black"/>
<path d="M26.876 56.878V56.904H17.75L17.646 55.63H24.653L23.522 53.81L24.328 53.355L26.876 56.878ZM17.542 63.5036C17.542 63.0703 17.6113 62.663 17.75 62.2816C17.8973 61.9003 18.101 61.5666 18.361 61.2806C18.6297 60.9946 18.946 60.7693 19.31 60.6046C19.6827 60.44 20.0987 60.3576 20.558 60.3576C21.0693 60.3576 21.507 60.4053 21.871 60.5006C22.235 60.596 22.599 60.7346 22.963 60.9166C23.665 61.2633 24.3323 61.6706 24.965 62.1386C25.5977 62.6153 26.2347 63.1223 26.876 63.6596L26.252 64.8166C25.7753 64.3486 25.2857 63.9066 24.783 63.4906C24.289 63.0746 23.769 62.6846 23.223 62.3206L23.197 62.3466C23.327 62.52 23.4353 62.7323 23.522 62.9836C23.6087 63.2436 23.652 63.495 23.652 63.7376C23.652 64.1363 23.5697 64.509 23.405 64.8556C23.249 65.211 23.0323 65.5186 22.755 65.7786C22.4777 66.0386 22.157 66.2423 21.793 66.3896C21.429 66.537 21.0477 66.6106 20.649 66.6106C20.2243 66.6106 19.8213 66.5326 19.44 66.3766C19.0673 66.2293 18.738 66.017 18.452 65.7396C18.1747 65.471 17.9537 65.146 17.789 64.7646C17.6243 64.3833 17.542 63.963 17.542 63.5036ZM18.712 63.4776C18.712 64.0236 18.8767 64.47 19.206 64.8166C19.544 65.1633 20.012 65.3366 20.61 65.3366C20.8527 65.3366 21.091 65.2976 21.325 65.2196C21.559 65.1416 21.767 65.0246 21.949 64.8686C22.131 64.7213 22.274 64.535 22.378 64.3096C22.4907 64.093 22.547 63.8416 22.547 63.5556C22.547 63.287 22.495 63.0356 22.391 62.8016C22.2957 62.5676 22.1613 62.364 21.988 62.1906C21.8147 62.0173 21.6067 61.8786 21.364 61.7746C21.13 61.6793 20.8787 61.6316 20.61 61.6316C20.3587 61.6316 20.116 61.675 19.882 61.7616C19.6567 61.857 19.4573 61.987 19.284 62.1516C19.1107 62.3163 18.972 62.5113 18.868 62.7366C18.764 62.962 18.712 63.209 18.712 63.4776ZM17.542 71.0913C17.542 70.4933 17.6807 69.9863 17.958 69.5703C18.244 69.1543 18.608 68.8206 19.05 68.5693C19.5007 68.3179 20.0033 68.1359 20.558 68.0233C21.1213 67.9106 21.676 67.8543 22.222 67.8543C22.5513 67.8543 22.8937 67.8759 23.249 67.9193C23.6043 67.9626 23.9553 68.0319 24.302 68.1273C24.6487 68.2313 24.978 68.3656 25.29 68.5303C25.602 68.6949 25.875 68.8943 26.109 69.1283C26.343 69.3709 26.5293 69.6526 26.668 69.9733C26.8067 70.2939 26.876 70.6666 26.876 71.0913C26.876 71.6979 26.733 72.2049 26.447 72.6123C26.161 73.0283 25.7927 73.3619 25.342 73.6133C24.8913 73.8733 24.3887 74.0553 23.834 74.1593C23.2793 74.2719 22.729 74.3283 22.183 74.3283C21.689 74.3283 21.169 74.2763 20.623 74.1723C20.0857 74.0683 19.5873 73.8906 19.128 73.6393C18.6687 73.3966 18.2873 73.0673 17.984 72.6513C17.6893 72.2353 17.542 71.7153 17.542 71.0913ZM18.712 71.0913C18.712 71.7413 19.011 72.2309 19.609 72.5603C20.2157 72.8896 21.0823 73.0543 22.209 73.0543C23.3183 73.0543 24.1763 72.8896 24.783 72.5603C25.3983 72.2396 25.706 71.7456 25.706 71.0783C25.706 70.4716 25.4157 69.9949 24.835 69.6483C24.263 69.3016 23.3877 69.1283 22.209 69.1283C21.0823 69.1283 20.2157 69.2929 19.609 69.6223C19.011 69.9516 18.712 70.4413 18.712 71.0913Z" fill="black"/>
</svg>
