<svg width="186" height="116" viewBox="0 0 186 116" fill="none" xmlns="http://www.w3.org/2000/svg">
<rect x="183.75" y="1.75" width="112" height="182" transform="rotate(90 183.75 1.75)" fill="#D9E8D6"/>
<rect x="183.75" y="1.75" width="112" height="182" transform="rotate(90 183.75 1.75)" stroke="black" stroke-width="3.5"/>
<path d="M164.876 41.017L164.863 41.056L158.636 46.763H164.46L164.668 48.037H155.542L155.555 47.998L161.782 42.291H155.75L155.594 41.017H164.876ZM164.876 53.5879L155.802 58.1249L155.542 56.8509L158.61 55.3299V51.7419L155.542 50.2339L155.802 49.0379L164.876 53.5619V53.5879ZM159.78 52.2749V54.8099L162.341 53.5359L159.78 52.2749ZM164.876 60.2698V60.2958L158.077 63.3768L164.876 66.4188V66.4448L155.75 68.2648L155.594 67.0298L161.236 65.9508V65.9248L155.646 63.3898V63.3638L161.236 60.7638V60.7378L155.594 59.6848L155.75 58.4628L164.876 60.2698ZM164.668 74.444L163.498 74.717V70.96H160.976V73.963H159.806V70.96H156.92V75.003L155.75 74.639V69.686H164.668V74.444Z" fill="black"/>
<path d="M30.876 43.2189V43.2449L23.609 46.2739L30.876 49.2769V49.3029L21.75 51.0969L21.646 50.2909L28.25 49.0169V48.9909L21.542 46.2869V46.2609L28.25 43.4529V43.4269L21.646 42.2049L21.75 41.3989L30.876 43.2189Z" fill="black"/>
<path fill-rule="evenodd" clip-rule="evenodd" d="M26.75 51.1457L26.75 41.3539L26.05 41.2081V51.2916L26.75 51.1457ZM25.25 51.4583V41.0414L24.55 40.8955V51.6042L25.25 51.4583Z" fill="black"/>
<path d="M28.094 58.737C27.7473 58.737 27.4007 58.672 27.054 58.542C26.7073 58.412 26.3693 58.2473 26.04 58.048C25.7193 57.8487 25.4117 57.6277 25.117 57.385C24.8223 57.1423 24.5537 56.9083 24.311 56.683L22.92 55.37V58.88L21.75 58.646V52.809L25.884 56.371C26.0313 56.501 26.196 56.631 26.378 56.761C26.56 56.891 26.7463 57.008 26.937 57.112C27.1363 57.216 27.3313 57.2983 27.522 57.359C27.7213 57.4283 27.912 57.463 28.094 57.463C28.5967 57.463 28.991 57.307 29.277 56.995C29.563 56.683 29.706 56.267 29.706 55.747C29.706 55.4957 29.6627 55.266 29.576 55.058C29.4893 54.85 29.368 54.668 29.212 54.512C29.0647 54.356 28.8913 54.2347 28.692 54.148C28.4927 54.0613 28.2803 54.018 28.055 54.018C27.483 54.018 27.0323 54.161 26.703 54.447C26.3823 54.7417 26.2003 55.11 26.157 55.552L25.143 54.746C25.325 54.174 25.6717 53.7147 26.183 53.368C26.6943 53.0213 27.3313 52.848 28.094 52.848C28.5013 52.848 28.874 52.9217 29.212 53.069C29.55 53.225 29.8403 53.4373 30.083 53.706C30.3343 53.9747 30.5293 54.291 30.668 54.655C30.8067 55.019 30.876 55.4177 30.876 55.851C30.876 56.2583 30.811 56.6353 30.681 56.982C30.551 57.3373 30.3647 57.645 30.122 57.905C29.8793 58.165 29.5847 58.3687 29.238 58.516C28.9 58.6633 28.5187 58.737 28.094 58.737ZM21.542 63.4776C21.542 62.8796 21.6807 62.3726 21.958 61.9566C22.244 61.5406 22.608 61.207 23.05 60.9556C23.5007 60.7043 24.0033 60.5223 24.558 60.4096C25.1213 60.297 25.676 60.2406 26.222 60.2406C26.5513 60.2406 26.8937 60.2623 27.249 60.3056C27.6043 60.349 27.9553 60.4183 28.302 60.5136C28.6487 60.6176 28.978 60.752 29.29 60.9166C29.602 61.0813 29.875 61.2806 30.109 61.5146C30.343 61.7573 30.5293 62.039 30.668 62.3596C30.8067 62.6803 30.876 63.053 30.876 63.4776C30.876 64.0843 30.733 64.5913 30.447 64.9986C30.161 65.4146 29.7927 65.7483 29.342 65.9996C28.8913 66.2596 28.3887 66.4416 27.834 66.5456C27.2793 66.6583 26.729 66.7146 26.183 66.7146C25.689 66.7146 25.169 66.6626 24.623 66.5586C24.0857 66.4546 23.5873 66.277 23.128 66.0256C22.6687 65.783 22.2873 65.4536 21.984 65.0376C21.6893 64.6216 21.542 64.1016 21.542 63.4776ZM22.712 63.4776C22.712 64.1276 23.011 64.6173 23.609 64.9466C24.2157 65.276 25.0823 65.4406 26.209 65.4406C27.3183 65.4406 28.1763 65.276 28.783 64.9466C29.3983 64.626 29.706 64.132 29.706 63.4646C29.706 62.858 29.4157 62.3813 28.835 62.0346C28.263 61.688 27.3877 61.5146 26.209 61.5146C25.0823 61.5146 24.2157 61.6793 23.609 62.0086C23.011 62.338 22.712 62.8276 22.712 63.4776ZM21.542 71.0913C21.542 70.4933 21.6807 69.9863 21.958 69.5703C22.244 69.1543 22.608 68.8206 23.05 68.5693C23.5007 68.3179 24.0033 68.1359 24.558 68.0233C25.1213 67.9106 25.676 67.8543 26.222 67.8543C26.5513 67.8543 26.8937 67.8759 27.249 67.9193C27.6043 67.9626 27.9553 68.0319 28.302 68.1273C28.6487 68.2313 28.978 68.3656 29.29 68.5303C29.602 68.6949 29.875 68.8943 30.109 69.1283C30.343 69.3709 30.5293 69.6526 30.668 69.9733C30.8067 70.2939 30.876 70.6666 30.876 71.0913C30.876 71.6979 30.733 72.2049 30.447 72.6123C30.161 73.0283 29.7927 73.3619 29.342 73.6133C28.8913 73.8733 28.3887 74.0553 27.834 74.1593C27.2793 74.2719 26.729 74.3283 26.183 74.3283C25.689 74.3283 25.169 74.2763 24.623 74.1723C24.0857 74.0683 23.5873 73.8906 23.128 73.6393C22.6687 73.3966 22.2873 73.0673 21.984 72.6513C21.6893 72.2353 21.542 71.7153 21.542 71.0913ZM22.712 71.0913C22.712 71.7413 23.011 72.2309 23.609 72.5603C24.2157 72.8896 25.0823 73.0543 26.209 73.0543C27.3183 73.0543 28.1763 72.8896 28.783 72.5603C29.3983 72.2396 29.706 71.7456 29.706 71.0783C29.706 70.4716 29.4157 69.9949 28.835 69.6483C28.263 69.3016 27.3877 69.1283 26.209 69.1283C25.0823 69.1283 24.2157 69.2929 23.609 69.6223C23.011 69.9516 22.712 70.4413 22.712 71.0913Z" fill="black"/>
<path d="M99.8917 70.4867C106.346 69.4031 112.221 74.4169 112.221 81.0082V97.75H106.926C106.926 97.75 98.4524 87.9178 91.0441 87.0833C83.7295 86.2593 73.3971 93.75 73.3971 93.75L69.8676 93.75V88.8618C68.393 89.9777 66.5599 90.6389 64.5735 90.6389C59.7004 90.6389 55.75 86.6592 55.75 81.75C55.75 76.8408 59.7004 72.8611 64.5735 72.8611C66.5599 72.8611 68.393 73.5223 69.8676 74.6382V55.9729C68.393 57.0888 66.5599 57.75 64.5735 57.75C59.7004 57.75 55.75 53.7703 55.75 48.8611C55.75 43.9519 59.7004 39.9722 64.5735 39.9722C66.5599 39.9722 68.393 40.6335 69.8676 41.7493V39.0833L55.75 31.9722V17.75L69.8676 31.9722C69.8676 26.0812 74.6082 21.3056 80.4559 21.3056C86.3036 21.3056 91.0441 26.0812 91.0441 31.9722L112.221 24.8611L115.75 28.4167V42.6389L112.221 46.1944L91.0441 39.0833L91.0441 71.9722L99.8917 70.4867Z" fill="black"/>
</svg>
