<svg width="116" height="186" viewBox="0 0 116 186" fill="none" xmlns="http://www.w3.org/2000/svg">
<rect x="113.75" y="183.75" width="112" height="182" transform="rotate(180 113.75 183.75)" fill="#D9E8D6"/>
<rect x="113.75" y="183.75" width="112" height="182" transform="rotate(180 113.75 183.75)" stroke="black" stroke-width="3.5"/>
<rect x="113.75" y="183.75" width="112" height="42" transform="rotate(180 113.75 183.75)" fill="#FEF200" stroke="black" stroke-width="3.5"/>
<path d="M74.483 120.876L74.444 120.863L68.737 114.636V120.46L67.463 120.668V111.542L67.502 111.555L73.209 117.782V111.75L74.483 111.594V120.876ZM61.9121 120.876L57.3751 111.802L58.6491 111.542L60.1701 114.61H63.7581L65.2661 111.542L66.4621 111.802L61.9381 120.876H61.9121ZM63.2251 115.78H60.6901L61.9641 118.341L63.2251 115.78ZM55.2302 120.876H55.2042L52.1232 114.077L49.0812 120.876H49.0552L47.2352 111.75L48.4702 111.594L49.5492 117.236H49.5752L52.1102 111.646H52.1362L54.7362 117.236H54.7622L55.8152 111.594L57.0372 111.75L55.2302 120.876ZM41.056 120.668L40.783 119.498H44.54V116.976H41.537V115.806H44.54V112.92H40.497L40.861 111.75H45.814V120.668H41.056Z" fill="black"/>
<path d="M72.2811 26.876H72.2551L69.2261 19.609L66.2231 26.876H66.1971L64.4031 17.75L65.2091 17.646L66.4831 24.25H66.5091L69.2131 17.542H69.2391L72.0471 24.25H72.0731L73.2951 17.646L74.1011 17.75L72.2811 26.876Z" fill="black"/>
<path fill-rule="evenodd" clip-rule="evenodd" d="M64.3543 22.75H74.1461L74.2919 22.05H64.2084L64.3543 22.75ZM64.0417 21.25H74.4586L74.6045 20.55H63.8958L64.0417 21.25Z" fill="black"/>
<path d="M56.763 24.094C56.763 23.7473 56.828 23.4007 56.958 23.054C57.088 22.7073 57.2527 22.3693 57.452 22.04C57.6513 21.7193 57.8723 21.4117 58.115 21.117C58.3577 20.8223 58.5917 20.5537 58.817 20.311L60.13 18.92H56.62L56.854 17.75H62.691L59.129 21.884C58.999 22.0313 58.869 22.196 58.739 22.378C58.609 22.56 58.492 22.7463 58.388 22.937C58.284 23.1363 58.2017 23.3313 58.141 23.522C58.0717 23.7213 58.037 23.912 58.037 24.094C58.037 24.5967 58.193 24.991 58.505 25.277C58.817 25.563 59.233 25.706 59.753 25.706C60.0043 25.706 60.234 25.6627 60.442 25.576C60.65 25.4893 60.832 25.368 60.988 25.212C61.144 25.0647 61.2653 24.8913 61.352 24.692C61.4387 24.4927 61.482 24.2803 61.482 24.055C61.482 23.483 61.339 23.0323 61.053 22.703C60.7583 22.3823 60.39 22.2003 59.948 22.157L60.754 21.143C61.326 21.325 61.7853 21.6717 62.132 22.183C62.4787 22.6943 62.652 23.3313 62.652 24.094C62.652 24.5013 62.5783 24.874 62.431 25.212C62.275 25.55 62.0627 25.8403 61.794 26.083C61.5253 26.3343 61.209 26.5293 60.845 26.668C60.481 26.8067 60.0823 26.876 59.649 26.876C59.2417 26.876 58.8647 26.811 58.518 26.681C58.1627 26.551 57.855 26.3647 57.595 26.122C57.335 25.8793 57.1313 25.5847 56.984 25.238C56.8367 24.9 56.763 24.5187 56.763 24.094ZM49.2794 24.601C49.2794 24.3497 49.3184 24.12 49.3964 23.912C49.4657 23.704 49.5654 23.5133 49.6954 23.34C49.8167 23.1753 49.964 23.0237 50.1374 22.885C50.302 22.7463 50.484 22.6207 50.6834 22.508C50.1547 22.2913 49.73 21.9837 49.4094 21.585C49.0887 21.1863 48.9284 20.688 48.9284 20.09C48.9284 19.6653 49.0107 19.2927 49.1754 18.972C49.3314 18.66 49.5567 18.3957 49.8514 18.179C50.1374 17.971 50.4884 17.815 50.9044 17.711C51.3117 17.5983 51.7667 17.542 52.2694 17.542C52.5987 17.542 52.9324 17.5983 53.2704 17.711C53.6084 17.8237 53.916 17.984 54.1934 18.192C54.462 18.4087 54.683 18.6643 54.8564 18.959C55.0297 19.2537 55.1164 19.583 55.1164 19.947C55.1164 20.571 54.969 21.0693 54.6744 21.442C54.3797 21.8147 53.9637 22.1267 53.4264 22.378C53.8684 22.612 54.215 22.9023 54.4664 23.249C54.7177 23.5957 54.8434 23.977 54.8434 24.393C54.8434 24.7657 54.774 25.1037 54.6354 25.407C54.4967 25.719 54.3017 25.9833 54.0504 26.2C53.799 26.4167 53.5 26.5813 53.1534 26.694C52.8067 26.8153 52.4254 26.876 52.0094 26.876C51.654 26.876 51.3117 26.824 50.9824 26.72C50.653 26.6247 50.3627 26.4817 50.1114 26.291C49.86 26.1003 49.6607 25.862 49.5134 25.576C49.3574 25.2987 49.2794 24.9737 49.2794 24.601ZM51.9574 22.833C50.952 23.197 50.4494 23.7127 50.4494 24.38C50.4494 24.796 50.5967 25.121 50.8914 25.355C51.186 25.589 51.589 25.706 52.1004 25.706C52.3084 25.706 52.5077 25.68 52.6984 25.628C52.889 25.576 53.058 25.498 53.2054 25.394C53.344 25.29 53.4567 25.1643 53.5434 25.017C53.63 24.8697 53.6734 24.705 53.6734 24.523C53.6734 24.107 53.5347 23.7603 53.2574 23.483C52.98 23.2057 52.5467 22.989 51.9574 22.833ZM52.0484 18.712C51.4504 18.712 50.9954 18.8333 50.6834 19.076C50.3627 19.3187 50.2024 19.648 50.2024 20.064C50.2024 20.3933 50.276 20.6663 50.4234 20.883C50.562 21.1083 50.8134 21.3077 51.1774 21.481C51.3074 21.5503 51.459 21.6153 51.6324 21.676C51.8057 21.7367 51.992 21.8103 52.1914 21.897C52.7114 21.7237 53.1187 21.4983 53.4134 21.221C53.6994 20.9523 53.8424 20.623 53.8424 20.233C53.8424 19.739 53.682 19.362 53.3614 19.102C53.032 18.842 52.5944 18.712 52.0484 18.712ZM44.4087 17.542C45.0067 17.542 45.5137 17.6807 45.9297 17.958C46.3457 18.244 46.6794 18.608 46.9307 19.05C47.1821 19.5007 47.3641 20.0033 47.4767 20.558C47.5894 21.1213 47.6457 21.676 47.6457 22.222C47.6457 22.5513 47.6241 22.8937 47.5807 23.249C47.5374 23.6043 47.4681 23.9553 47.3727 24.302C47.2687 24.6487 47.1344 24.978 46.9697 25.29C46.8051 25.602 46.6057 25.875 46.3717 26.109C46.1291 26.343 45.8474 26.5293 45.5267 26.668C45.2061 26.8067 44.8334 26.876 44.4087 26.876C43.8021 26.876 43.2951 26.733 42.8877 26.447C42.4717 26.161 42.1381 25.7927 41.8867 25.342C41.6267 24.8913 41.4447 24.3887 41.3407 23.834C41.2281 23.2793 41.1717 22.729 41.1717 22.183C41.1717 21.689 41.2237 21.169 41.3277 20.623C41.4317 20.0857 41.6094 19.5873 41.8607 19.128C42.1034 18.6687 42.4327 18.2873 42.8487 17.984C43.2647 17.6893 43.7847 17.542 44.4087 17.542ZM44.4087 18.712C43.7587 18.712 43.2691 19.011 42.9397 19.609C42.6104 20.2157 42.4457 21.0823 42.4457 22.209C42.4457 23.3183 42.6104 24.1763 42.9397 24.783C43.2604 25.3983 43.7544 25.706 44.4217 25.706C45.0284 25.706 45.5051 25.4157 45.8517 24.835C46.1984 24.263 46.3717 23.3877 46.3717 22.209C46.3717 21.0823 46.2071 20.2157 45.8777 19.609C45.5484 19.011 45.0587 18.712 44.4087 18.712Z" fill="black"/>
</svg>
