<svg width="116" height="186" viewBox="0 0 116 186" fill="none" xmlns="http://www.w3.org/2000/svg">
<rect x="113.75" y="183.75" width="112" height="182" transform="rotate(180 113.75 183.75)" fill="#D9E8D6"/>
<rect x="113.75" y="183.75" width="112" height="182" transform="rotate(180 113.75 183.75)" stroke="black" stroke-width="3.5"/>
<path d="M74.483 164.876L74.444 164.863L68.737 158.636V164.46L67.463 164.668V155.542L67.502 155.555L73.209 161.782V155.75L74.483 155.594V164.876ZM61.9121 164.876L57.3751 155.802L58.6491 155.542L60.1701 158.61H63.7581L65.2661 155.542L66.4621 155.802L61.9381 164.876H61.9121ZM63.2251 159.78H60.6901L61.9641 162.341L63.2251 159.78ZM55.2302 164.876H55.2042L52.1232 158.077L49.0812 164.876H49.0552L47.2352 155.75L48.4702 155.594L49.5492 161.236H49.5752L52.1102 155.646H52.1362L54.7362 161.236H54.7622L55.8152 155.594L57.0372 155.75L55.2302 164.876ZM41.056 164.668L40.783 163.498H44.54V160.976H41.537V159.806H44.54V156.92H40.497L40.861 155.75H45.814V164.668H41.056Z" fill="black"/>
<path d="M72.2811 30.876H72.2551L69.2261 23.609L66.2231 30.876H66.1971L64.4031 21.75L65.2091 21.646L66.4831 28.25H66.5091L69.2131 21.542H69.2391L72.0471 28.25H72.0731L73.2951 21.646L74.1011 21.75L72.2811 30.876Z" fill="black"/>
<path fill-rule="evenodd" clip-rule="evenodd" d="M64.3543 26.75L74.1461 26.75L74.2919 26.05L64.2084 26.05L64.3543 26.75ZM64.0417 25.25L74.4586 25.25L74.6045 24.55L63.8958 24.55L64.0417 25.25Z" fill="black"/>
<path d="M56.763 28.094C56.763 27.7473 56.828 27.4007 56.958 27.054C57.088 26.7073 57.2527 26.3693 57.452 26.04C57.6513 25.7193 57.8723 25.4117 58.115 25.117C58.3577 24.8223 58.5917 24.5537 58.817 24.311L60.13 22.92H56.62L56.854 21.75H62.691L59.129 25.884C58.999 26.0313 58.869 26.196 58.739 26.378C58.609 26.56 58.492 26.7463 58.388 26.937C58.284 27.1363 58.2017 27.3313 58.141 27.522C58.0717 27.7213 58.037 27.912 58.037 28.094C58.037 28.5967 58.193 28.991 58.505 29.277C58.817 29.563 59.233 29.706 59.753 29.706C60.0043 29.706 60.234 29.6627 60.442 29.576C60.65 29.4893 60.832 29.368 60.988 29.212C61.144 29.0647 61.2653 28.8913 61.352 28.692C61.4387 28.4927 61.482 28.2803 61.482 28.055C61.482 27.483 61.339 27.0323 61.053 26.703C60.7583 26.3823 60.39 26.2003 59.948 26.157L60.754 25.143C61.326 25.325 61.7853 25.6717 62.132 26.183C62.4787 26.6943 62.652 27.3313 62.652 28.094C62.652 28.5013 62.5783 28.874 62.431 29.212C62.275 29.55 62.0627 29.8403 61.794 30.083C61.5253 30.3343 61.209 30.5293 60.845 30.668C60.481 30.8067 60.0823 30.876 59.649 30.876C59.2417 30.876 58.8647 30.811 58.518 30.681C58.1627 30.551 57.855 30.3647 57.595 30.122C57.335 29.8793 57.1313 29.5847 56.984 29.238C56.8367 28.9 56.763 28.5187 56.763 28.094ZM52.0224 21.542C52.6204 21.542 53.1274 21.6807 53.5434 21.958C53.9594 22.244 54.293 22.608 54.5444 23.05C54.7957 23.5007 54.9777 24.0033 55.0904 24.558C55.203 25.1213 55.2594 25.676 55.2594 26.222C55.2594 26.5513 55.2377 26.8937 55.1944 27.249C55.151 27.6043 55.0817 27.9553 54.9864 28.302C54.8824 28.6487 54.748 28.978 54.5834 29.29C54.4187 29.602 54.2194 29.875 53.9854 30.109C53.7427 30.343 53.461 30.5293 53.1404 30.668C52.8197 30.8067 52.447 30.876 52.0224 30.876C51.4157 30.876 50.9087 30.733 50.5014 30.447C50.0854 30.161 49.7517 29.7927 49.5004 29.342C49.2404 28.8913 49.0584 28.3887 48.9544 27.834C48.8417 27.2793 48.7854 26.729 48.7854 26.183C48.7854 25.689 48.8374 25.169 48.9414 24.623C49.0454 24.0857 49.223 23.5873 49.4744 23.128C49.717 22.6687 50.0464 22.2873 50.4624 21.984C50.8784 21.6893 51.3984 21.542 52.0224 21.542ZM52.0224 22.712C51.3724 22.712 50.8827 23.011 50.5534 23.609C50.224 24.2157 50.0594 25.0823 50.0594 26.209C50.0594 27.3183 50.224 28.1763 50.5534 28.783C50.874 29.3983 51.368 29.706 52.0354 29.706C52.642 29.706 53.1187 29.4157 53.4654 28.835C53.812 28.263 53.9854 27.3877 53.9854 26.209C53.9854 25.0823 53.8207 24.2157 53.4914 23.609C53.162 23.011 52.6724 22.712 52.0224 22.712ZM44.4087 21.542C45.0067 21.542 45.5137 21.6807 45.9297 21.958C46.3457 22.244 46.6794 22.608 46.9307 23.05C47.1821 23.5007 47.3641 24.0033 47.4767 24.558C47.5894 25.1213 47.6457 25.676 47.6457 26.222C47.6457 26.5513 47.6241 26.8937 47.5807 27.249C47.5374 27.6043 47.4681 27.9553 47.3727 28.302C47.2687 28.6487 47.1344 28.978 46.9697 29.29C46.8051 29.602 46.6057 29.875 46.3717 30.109C46.1291 30.343 45.8474 30.5293 45.5267 30.668C45.2061 30.8067 44.8334 30.876 44.4087 30.876C43.8021 30.876 43.2951 30.733 42.8877 30.447C42.4717 30.161 42.1381 29.7927 41.8867 29.342C41.6267 28.8913 41.4447 28.3887 41.3407 27.834C41.2281 27.2793 41.1717 26.729 41.1717 26.183C41.1717 25.689 41.2237 25.169 41.3277 24.623C41.4317 24.0857 41.6094 23.5873 41.8607 23.128C42.1034 22.6687 42.4327 22.2873 42.8487 21.984C43.2647 21.6893 43.7847 21.542 44.4087 21.542ZM44.4087 22.712C43.7587 22.712 43.2691 23.011 42.9397 23.609C42.6104 24.2157 42.4457 25.0823 42.4457 26.209C42.4457 27.3183 42.6104 28.1763 42.9397 28.783C43.2604 29.3983 43.7544 29.706 44.4217 29.706C45.0284 29.706 45.5051 29.4157 45.8517 28.835C46.1984 28.263 46.3717 27.3877 46.3717 26.209C46.3717 25.0823 46.2071 24.2157 45.8777 23.609C45.5484 23.011 45.0587 22.712 44.4087 22.712Z" fill="black"/>
<path d="M45.0133 99.8917C46.0969 106.346 41.0831 112.221 34.4918 112.221H17.75V106.926C17.75 106.926 27.5822 98.4524 28.4167 91.0441C29.2407 83.7295 21.75 73.3971 21.75 73.3971L21.75 69.8676H26.6382C25.5223 68.393 24.8611 66.5599 24.8611 64.5735C24.8611 59.7004 28.8408 55.75 33.75 55.75C38.6592 55.75 42.6389 59.7004 42.6389 64.5735C42.6389 66.5599 41.9777 68.393 40.8618 69.8676L59.5271 69.8676C58.4112 68.393 57.75 66.5599 57.75 64.5735C57.75 59.7004 61.7297 55.75 66.6389 55.75C71.5481 55.75 75.5278 59.7004 75.5278 64.5735C75.5278 66.5599 74.8665 68.393 73.7507 69.8676H76.4167L83.5278 55.75H97.75L83.5278 69.8676C89.4188 69.8676 94.1944 74.6082 94.1944 80.4559C94.1944 86.3036 89.4188 91.0441 83.5278 91.0441L90.6389 112.221L87.0833 115.75H72.8611L69.3056 112.221L76.4167 91.0441L43.5278 91.0441L45.0133 99.8917Z" fill="black"/>
</svg>
