<svg width="186" height="116" viewBox="0 0 186 116" fill="none" xmlns="http://www.w3.org/2000/svg">
<rect x="183.75" y="1.75" width="112" height="182" transform="rotate(90 183.75 1.75)" fill="#D9E8D6"/>
<rect x="183.75" y="1.75" width="112" height="182" transform="rotate(90 183.75 1.75)" stroke="black" stroke-width="3.5"/>




<path d="M99.8917 70.4867C106.346 69.4031 112.221 74.4169 112.221 81.0082V97.75H106.926C106.926 97.75 98.4524 87.9178 91.0441 87.0833C83.7295 86.2593 73.3971 93.75 73.3971 93.75L69.8676 93.75V88.8618C68.393 89.9777 66.5599 90.6389 64.5735 90.6389C59.7004 90.6389 55.75 86.6592 55.75 81.75C55.75 76.8408 59.7004 72.8611 64.5735 72.8611C66.5599 72.8611 68.393 73.5223 69.8676 74.6382V55.9729C68.393 57.0888 66.5599 57.75 64.5735 57.75C59.7004 57.75 55.75 53.7703 55.75 48.8611C55.75 43.9519 59.7004 39.9722 64.5735 39.9722C66.5599 39.9722 68.393 40.6335 69.8676 41.7493V39.0833L55.75 31.9722V17.75L69.8676 31.9722C69.8676 26.0812 74.6082 21.3056 80.4559 21.3056C86.3036 21.3056 91.0441 26.0812 91.0441 31.9722L112.221 24.8611L115.75 28.4167V42.6389L112.221 46.1944L91.0441 39.0833L91.0441 71.9722L99.8917 70.4867Z" fill="black"/>
</svg>
