<svg width="116" height="186" viewBox="0 0 116 186" fill="none" xmlns="http://www.w3.org/2000/svg">
<rect x="1.75" y="1.75" width="112" height="182" fill="#D9E8D6"/>
<rect x="1.75" y="1.75" width="112" height="182" stroke="black" stroke-width="3.5"/>




<path d="M70.4867 85.6083C69.4031 79.1545 74.4169 73.2794 81.0082 73.2794H97.75V78.5735C97.75 78.5735 87.9178 87.0476 87.0833 94.4559C86.2593 101.771 93.75 112.103 93.75 112.103L93.75 115.632H88.8618C89.9777 117.107 90.6389 118.94 90.6389 120.926C90.6389 125.8 86.6592 129.75 81.75 129.75C76.8408 129.75 72.8611 125.8 72.8611 120.926C72.8611 118.94 73.5223 117.107 74.6382 115.632L55.9729 115.632C57.0888 117.107 57.75 118.94 57.75 120.926C57.75 125.8 53.7703 129.75 48.8611 129.75C43.9519 129.75 39.9722 125.8 39.9722 120.926C39.9722 118.94 40.6335 117.107 41.7493 115.632H39.0833L31.9722 129.75H17.75L31.9722 115.632C26.0812 115.632 21.3056 110.892 21.3056 105.044C21.3056 99.1964 26.0812 94.4559 31.9722 94.4559L24.8611 73.2794L28.4167 69.75H42.6389L46.1944 73.2794L39.0833 94.4559L71.9722 94.4559L70.4867 85.6083Z" fill="black"/>
</svg>
