<svg width="116" height="186" viewBox="0 0 116 186" fill="none" xmlns="http://www.w3.org/2000/svg">
<rect x="1.75" y="1.75" width="112" height="182" fill="#D9E8D6"/>
<rect x="1.75" y="1.75" width="112" height="182" stroke="black" stroke-width="3.5"/>
<path d="M24.9402 34.75L22.9802 34.91L22.9802 21.03L24.9402 20.71L24.9402 34.75ZM27.8538 20.71L27.9138 20.73L36.6938 30.31V21.35L38.6538 21.03V35.07L38.5938 35.05L29.8138 25.47L29.8138 34.75L27.8538 34.99L27.8538 20.71ZM50.1537 23.17C49.7937 22.9167 49.427 22.7433 49.0537 22.65C48.6803 22.5567 48.2803 22.51 47.8537 22.51C47.147 22.51 46.487 22.6633 45.8737 22.97C45.2737 23.2633 44.747 23.6567 44.2937 24.15C43.8403 24.63 43.487 25.19 43.2337 25.83C42.9803 26.47 42.8537 27.13 42.8537 27.81C42.8537 28.53 42.9803 29.2233 43.2337 29.89C43.487 30.5433 43.8337 31.1233 44.2737 31.63C44.7137 32.1233 45.227 32.5233 45.8137 32.83C46.4137 33.1233 47.0603 33.27 47.7537 33.27C48.2203 33.27 48.687 33.1967 49.1537 33.05C49.6337 32.89 50.067 32.6833 50.4537 32.43L50.0937 34.57C49.6803 34.7167 49.2803 34.8367 48.8937 34.93C48.5203 35.0233 48.127 35.07 47.7137 35.07C46.7937 35.07 45.9203 34.8833 45.0937 34.51C44.267 34.1367 43.5403 33.63 42.9137 32.99C42.3003 32.3367 41.807 31.5767 41.4337 30.71C41.0737 29.83 40.8937 28.89 40.8937 27.89C40.8937 26.9833 41.0803 26.1033 41.4537 25.25C41.827 24.3833 42.3137 23.6167 42.9137 22.95C43.527 22.27 44.2203 21.73 44.9937 21.33C45.767 20.9167 46.5603 20.71 47.3737 20.71C47.7737 20.71 48.167 20.7433 48.5537 20.81C48.9537 20.8633 49.347 20.9433 49.7337 21.05L50.1537 23.17ZM66.807 27.89C66.807 28.89 66.6136 29.83 66.227 30.71C65.8536 31.5767 65.3403 32.3367 64.687 32.99C64.047 33.63 63.287 34.1367 62.407 34.51C61.5403 34.8833 60.607 35.07 59.607 35.07C58.5936 35.07 57.647 34.8833 56.767 34.51C55.9003 34.1367 55.1403 33.6233 54.487 32.97C53.847 32.3167 53.3403 31.5567 52.967 30.69C52.5936 29.81 52.407 28.8767 52.407 27.89C52.407 26.89 52.5936 25.9567 52.967 25.09C53.3536 24.21 53.867 23.45 54.507 22.81C55.1603 22.1567 55.9203 21.6433 56.787 21.27C57.667 20.8967 58.607 20.71 59.607 20.71C60.6203 20.71 61.5603 20.9033 62.427 21.29C63.307 21.6633 64.067 22.1767 64.707 22.83C65.3603 23.47 65.8736 24.23 66.247 25.11C66.6203 25.9767 66.807 26.9033 66.807 27.89ZM59.607 33.27C60.3003 33.27 60.9603 33.13 61.587 32.85C62.227 32.5567 62.787 32.17 63.267 31.69C63.747 31.1967 64.127 30.6233 64.407 29.97C64.7003 29.3167 64.847 28.6233 64.847 27.89C64.847 27.17 64.707 26.4833 64.427 25.83C64.147 25.1767 63.767 24.61 63.287 24.13C62.8203 23.6367 62.267 23.2433 61.627 22.95C60.987 22.6567 60.307 22.51 59.587 22.51C58.907 22.51 58.247 22.65 57.607 22.93C56.9803 23.21 56.427 23.5967 55.947 24.09C55.467 24.57 55.0803 25.1367 54.787 25.79C54.507 26.4433 54.367 27.1433 54.367 27.89C54.367 28.6233 54.507 29.3167 54.787 29.97C55.067 30.6233 55.447 31.1967 55.927 31.69C56.407 32.17 56.9603 32.5567 57.587 32.85C58.227 33.13 58.9003 33.27 59.607 33.27ZM70.8134 20.71H70.8534L75.5934 31.17L80.2734 20.71H80.3134L83.1134 34.75L81.2134 34.99L79.5534 26.31H79.5134L75.6134 34.91H75.5734L71.5734 26.31H71.5334L69.9134 34.99L68.0334 34.75L70.8134 20.71ZM92.4198 21.03L92.8398 22.83H87.0598V26.71H91.6798V28.51H87.0598V32.95L93.2798 32.95L92.7198 34.75L85.0998 34.75V21.03H92.4198ZM49.847 43.03V44.83H46.647V56.75L44.687 56.99V44.83L41.127 44.83L41.747 43.03L49.847 43.03ZM56.0999 42.71L63.0799 56.67L61.1199 57.07L58.7799 52.35H53.2599L50.9399 57.07L49.0999 56.67L56.0599 42.71H56.0999ZM54.0799 50.55H57.9799L56.0199 46.61L54.0799 50.55ZM65.4998 42.71L68.7598 47.81L72.1598 42.71L73.9998 43.31L69.8398 49.35L74.4998 56.37L72.6398 57.07L68.7598 50.93L64.6598 57.07L62.9198 56.21L67.6198 49.35L63.6398 43.31L65.4998 42.71Z" fill="black"/>




<path d="M57.75 88.75L65.75 96.75L57.75 104.75L49.75 96.75L57.75 88.75Z" stroke="black" stroke-width="2"/>
<path d="M57.75 92.75L61.75 96.75L57.75 100.75L53.75 96.75L57.75 92.75Z" fill="black"/>
</svg>
