<svg width="186" height="116" viewBox="0 0 186 116" fill="none" xmlns="http://www.w3.org/2000/svg">
<rect x="1.75" y="113.75" width="112" height="182" transform="rotate(-90 1.75 113.75)" fill="#D9E8D6"/>
<rect x="1.75" y="113.75" width="112" height="182" transform="rotate(-90 1.75 113.75)" stroke="black" stroke-width="3.5"/>




<path d="M85.6083 45.0133C79.1545 46.0969 73.2794 41.0831 73.2794 34.4918V17.75H78.5735C78.5735 17.75 87.0476 27.5822 94.4559 28.4167C101.771 29.2407 112.103 21.75 112.103 21.75L115.632 21.75V26.6382C117.107 25.5223 118.94 24.8611 120.926 24.8611C125.8 24.8611 129.75 28.8408 129.75 33.75C129.75 38.6592 125.8 42.6389 120.926 42.6389C118.94 42.6389 117.107 41.9777 115.632 40.8618V59.5271C117.107 58.4112 118.94 57.75 120.926 57.75C125.8 57.75 129.75 61.7297 129.75 66.6389C129.75 71.5481 125.8 75.5278 120.926 75.5278C118.94 75.5278 117.107 74.8665 115.632 73.7507V76.4167L129.75 83.5278V97.75L115.632 83.5278C115.632 89.4188 110.892 94.1944 105.044 94.1944C99.1964 94.1944 94.4559 89.4188 94.4559 83.5278L73.2794 90.6389L69.75 87.0833V72.8611L73.2794 69.3056L94.4559 76.4167V43.5278L85.6083 45.0133Z" fill="black"/>
</svg>
