<svg width="116" height="186" viewBox="0 0 116 186" fill="none" xmlns="http://www.w3.org/2000/svg">
<rect x="113.75" y="183.75" width="112" height="182" transform="rotate(180 113.75 183.75)" fill="#D9E8D6"/>
<rect x="113.75" y="183.75" width="112" height="182" transform="rotate(180 113.75 183.75)" stroke="black" stroke-width="3.5"/>




<path d="M45.0133 99.8917C46.0969 106.346 41.0831 112.221 34.4918 112.221H17.75V106.926C17.75 106.926 27.5822 98.4524 28.4167 91.0441C29.2407 83.7295 21.75 73.3971 21.75 73.3971L21.75 69.8676H26.6382C25.5223 68.393 24.8611 66.5599 24.8611 64.5735C24.8611 59.7004 28.8408 55.75 33.75 55.75C38.6592 55.75 42.6389 59.7004 42.6389 64.5735C42.6389 66.5599 41.9777 68.393 40.8618 69.8676L59.5271 69.8676C58.4112 68.393 57.75 66.5599 57.75 64.5735C57.75 59.7004 61.7297 55.75 66.6389 55.75C71.5481 55.75 75.5278 59.7004 75.5278 64.5735C75.5278 66.5599 74.8665 68.393 73.7507 69.8676H76.4167L83.5278 55.75H97.75L83.5278 69.8676C89.4188 69.8676 94.1944 74.6082 94.1944 80.4559C94.1944 86.3036 89.4188 91.0441 83.5278 91.0441L90.6389 112.221L87.0833 115.75H72.8611L69.3056 112.221L76.4167 91.0441L43.5278 91.0441L45.0133 99.8917Z" fill="black"/>
</svg>
