<svg width="2117" height="1259" viewBox="0 0 2117 1259" fill="none" xmlns="http://www.w3.org/2000/svg">
<path d="M662.904 535.727C668.886 531.773 673.622 525.593 677.61 519.662C695.307 478.881 720.98 443.538 751.389 411.902C812.705 347.146 902.186 282.638 1009.61 269.044C1020.08 269.539 1031.3 265.831 1040.77 270.28L1101.34 334.788C1104.33 337.26 1108.07 338.496 1108.82 342.203C1107.82 343.686 1107.32 345.663 1105.82 346.652C1082.39 359.998 1056.22 367.166 1029.3 372.603C969.235 383.725 911.408 402.509 855.327 422.529C779.305 451.446 718.487 494.452 673.871 548.085L662.904 535.727Z" fill="white"/>
<path d="M2106.06 730.968C2067.43 695.624 2029.79 659.292 1991.16 623.949L1983.18 616.534L1878 519.154L1838.86 482.822C1833.63 476.149 1823.91 473.925 1825.9 462.061C1827.4 459.095 1827.15 433.638 1821.67 426.223C1814.19 420.786 1818.43 407.192 1814.94 398.295C1813.69 389.644 1812.94 380.994 1808.21 374.815C1803.22 363.94 1789.01 360.233 1779.04 352.818C1778.55 344.909 1775.06 339.471 1771.57 334.528C1756.36 319.946 1727.45 322.912 1708.01 328.844C1699.28 330.574 1693.55 339.718 1684.58 338.236C1606.56 268.29 1532.04 195.873 1456.01 124.445C1452.52 121.973 1451.53 117.524 1450.28 113.323C1446.29 98.9876 1454.77 88.1124 1464.24 81.192C1481.19 70.3171 1496.64 86.1353 1514.09 85.641C1529.29 86.3825 1542.01 78.2261 1547.74 68.0927C1547.99 65.8683 1548.49 64.8798 1549.48 63.3968C1548.24 58.7009 1550.98 56.4766 1550.73 51.7806H1551.23C1551.23 44.3659 1548.49 38.681 1546.99 31.7606C1537.02 13.471 1513.59 2.10194 1488.91 0.866151C1470.97 -2.09973 1453.77 3.09045 1438.07 8.28075C1399.68 24.0988 1377.25 53.2634 1372.02 94.0443L1371.52 94.0445C1370.77 126.916 1378.99 152.868 1396.69 172.393C1469.47 241.597 1543.5 310.554 1616.28 380.746C1620.77 389.644 1611.3 396.565 1611.3 406.451L1610.8 406.451C1609.3 417.82 1613.04 424.988 1614.54 434.874C1616.03 441.3 1621.77 446.49 1619.77 453.905C1619.77 462.308 1606.31 456.376 1605.81 464.78C1593.35 473.677 1583.88 485.541 1571.67 494.686C1564.44 499.382 1560.95 490.484 1555.22 489.743C1510.85 530.277 1448.79 576.001 1391.96 607.637C1388.22 608.873 1383.98 612.085 1380.74 608.378C1376.75 599.975 1378 587.864 1376 578.472C1373.51 569.575 1373.76 558.452 1365.29 554.003C1363.29 555.486 1362.79 558.453 1362.29 561.913C1362.29 564.384 1361.05 566.114 1360.3 567.844C1354.07 586.381 1343.85 601.952 1324.41 611.344C1321.42 611.838 1318.18 610.108 1317.43 607.389C1313.69 574.023 1309.2 541.893 1297.74 514.212C1278.55 464.039 1250.63 419.55 1211.75 383.465C1204.52 373.826 1192.31 367.647 1183.33 359.244C1180.09 355.042 1173.86 353.312 1173.11 346.639C1179.59 340.213 1187.82 335.023 1195.55 329.832C1216.23 310.307 1238.42 291.77 1243.9 261.617C1243.15 258.898 1242.16 256.427 1241.16 253.461C1237.92 248.765 1230.19 245.057 1221.97 246.787C1215.24 248.518 1212.25 252.966 1208.76 257.415C1196.04 284.355 1173.36 304.375 1147.69 322.418C1144.7 322.912 1140.96 324.642 1138.22 322.911C1126.5 314.261 1117.53 303.386 1105.07 295.477C1101.58 290.04 1095.6 286.58 1091.11 281.142C1075.66 261.37 1057.46 243.821 1043.5 223.06L1041.76 218.859C1017.08 190.436 998.637 156.822 981.688 123.209C975.955 111.098 969.474 100.223 954.519 95.2801C912.147 84.4052 869.026 97.0101 830.143 106.402C746.394 136.061 674.609 184.009 622.017 240.114C603.573 258.898 587.621 280.154 573.912 302.151C566.434 309.565 564.191 319.698 557.711 328.102C554.221 340.46 546.993 349.605 544.251 362.21C538.518 373.826 537.521 399.036 544.5 409.911C587.621 445.255 625.756 485.047 655.417 529.782C657.66 532.007 658.408 536.702 663.144 534.972C669.375 531.265 673.861 524.839 677.849 518.907C695.546 478.126 721.219 442.783 751.628 411.147C812.944 346.392 902.176 282.131 1009.6 268.043C1020.07 268.537 1031.54 265.077 1041.01 269.031C1043 271.503 1045.75 274.222 1043.75 277.188C1022.32 280.648 1000.38 283.119 980.441 290.04L980.441 291.523C998.885 309.812 1017.08 328.349 1036.77 345.403L1041.76 347.875C1060.45 345.65 1078.15 340.46 1095.1 333.539H1101.58C1104.57 336.011 1108.31 337.247 1109.3 341.202C1108.06 342.437 1107.81 344.662 1106.31 345.65C1082.88 358.502 1056.46 366.411 1029.79 371.602C969.474 382.476 911.897 401.508 855.815 421.033C779.544 450.198 719.226 493.203 674.111 546.342C655.667 568.586 644.949 595.032 637.471 625.185H636.972C636.474 628.151 636.225 630.869 636.225 633.835C632.237 681.289 650.183 717.375 688.318 736.9C701.778 744.315 717.481 745.55 732.935 749.01C735.676 752.718 739.166 755.684 739.166 761.121C737.421 761.863 734.928 762.851 732.934 761.863C612.296 738.136 495.397 695.872 394.45 633.835C390.712 631.611 386.973 629.386 383.234 626.668L377.502 624.938C366.534 637.79 357.312 618.759 347.84 615.793C341.111 612.58 335.378 602.941 325.657 606.648C320.174 605.659 320.423 600.469 316.933 597.998C309.456 584.651 297.243 575.012 289.516 561.912C288.269 549.802 284.531 538.68 286.774 525.581H287.272C286.524 520.39 288.519 513.47 285.278 510.257C281.54 506.055 273.813 506.796 268.329 507.785C237.671 512.481 223.464 535.961 217.482 561.171H216.984L216.485 567.597L215.986 567.597L215.737 578.225L215.239 578.225C216.236 580.697 213.993 581.438 212.497 582.921C177.851 596.515 141.958 611.838 110.304 630.375C108.559 631.611 106.814 632.847 104.82 633.835C61.4504 662.011 13.3447 694.389 2.62684 744.562L2.12842 744.562L1.63 751.977L0.633161 751.976C1.13166 759.391 4.12257 766.806 1.8793 774.468C1.63005 775.209 2.12867 776.692 0.633161 776.692C2.12867 780.152 -1.36085 781.635 0.633161 784.601C0.134657 800.419 22.8166 799.183 25.8076 812.53C33.7837 820.439 46.7444 814.013 55.9667 811.294C111.301 779.164 172.616 756.92 238.917 748.022C251.38 747.033 266.335 745.55 278.299 749.01C287.272 758.402 302.477 763.098 310.702 773.232C310.453 781.882 308.21 789.05 305.966 796.218C305.966 798.689 304.222 800.419 303.972 802.643C303.474 805.609 304.222 807.834 306.714 809.317C392.207 861.467 491.908 890.631 594.35 909.168C665.636 922.02 740.163 925.728 815.188 929.435L818.926 931.165L817.68 932.895C807.211 936.355 795.497 937.097 785.277 940.804C783.034 994.437 765.088 1106.65 754.868 1152.87C799.734 1216.63 874.011 1258.65 958.507 1258.4C1014.84 1258.4 1062.69 1244.56 1104.57 1212.92L1109.8 1202.3C1156.91 1129.88 1251.13 957.364 1266.58 857.512C1267.33 853.805 1268.08 849.603 1271.82 848.368C1271.82 848.368 1283.28 844.413 1276.05 847.132C1364.04 817.226 1504.12 770.266 1666.88 642.486C1667.13 637.296 1663.39 635.565 1661.4 631.116C1661.4 628.151 1662.39 625.679 1663.64 623.455C1666.63 619.5 1671.87 616.781 1674.61 612.58C1684.08 603.682 1695.29 594.537 1701.78 585.145C1699.78 579.214 1705.26 577.236 1707.51 573.034C1719.72 561.418 1731.19 548.072 1751.38 542.881C1761.35 539.916 1771.57 522.862 1782.03 536.208C1813.19 566.114 1845.84 594.537 1878 623.454C1897.94 641.25 1917.38 659.539 1936.32 678.323C1976.45 712.678 2013.84 748.763 2052.22 784.354C2058.95 788.555 2062.69 799.183 2074.41 795.476C2095.84 787.072 2111.05 772.985 2115.78 751.976L2116.28 751.976C2119.52 741.349 2111.05 737.888 2106.06 730.968Z" fill="black"/>
<path d="M1525.57 44.1337C1527.56 48.0882 1527.31 52.7841 1527.56 57.9744C1523.82 64.1534 1515.1 65.8836 1507.62 64.895C1490.42 52.7843 1463.25 52.0426 1445.31 63.9062C1440.57 69.5908 1432.35 73.2982 1431.1 80.96C1430.1 82.9373 1428.11 83.9258 1428.61 87.386C1427.86 89.1161 1426.11 90.8462 1426.11 92.8235C1424.12 101.721 1423.62 119.022 1430.1 126.437C1432.35 133.11 1438.08 136.323 1440.57 142.255C1454.03 158.567 1470.73 172.161 1486.93 186.743L1519.33 216.896C1527.31 225.794 1537.03 234.939 1546.25 243.095C1583.39 279.922 1623.52 314.771 1660.66 352.091C1663.15 359.506 1650.19 359.012 1645.21 362.472C1642.22 364.449 1638.73 365.932 1635.49 365.191C1626.01 359.259 1619.04 350.856 1611.06 343.935C1547.25 281.652 1479.95 222.334 1415.65 160.545C1401.69 148.187 1395.71 130.391 1392.96 110.372L1392.22 95.7894H1392.71L1393.21 89.8575L1393.71 89.8577C1400.69 59.7046 1418.14 34.4948 1452.54 25.5971C1479.21 20.9011 1509.61 26.3384 1525.57 44.1337Z" fill="white"/>
<path d="M871.03 131.128C890.97 178.582 920.382 219.61 951.289 259.649C952.784 260.638 951.787 263.604 952.037 265.828C931.349 273.49 909.664 280.658 889.225 290.05C856.324 305.373 828.906 323.663 801.488 342.447C790.771 342.2 789.026 331.078 782.545 325.64C753.882 290.791 720.98 258.661 688.328 226.777C688.079 224.059 687.082 223.07 687.082 220.104C706.524 198.849 734.689 183.772 761.11 167.46C791.768 150.406 824.918 134.835 859.564 125.69C865.795 124.455 869.285 127.42 871.03 131.128Z" fill="black"/>
<path d="M1761.58 353.783C1765.82 358.479 1764.82 367.377 1767.81 373.309C1774.04 376.522 1783.51 375.533 1789.25 380.723C1797.22 387.149 1797.97 397.777 1799.71 407.911C1796.97 410.135 1801.21 411.371 1799.71 414.337V421.257L1799.22 421.257C1797.97 422.987 1799.71 426.2 1797.47 427.436C1802.7 435.098 1806.19 443.501 1804.45 456.106H1803.95C1801.71 480.081 1787 498.123 1766.07 508.504C1761.08 508.504 1754.35 512.211 1750.61 508.504C1751.86 503.808 1753.6 497.629 1757.09 494.663C1772.05 479.833 1776.04 460.555 1776.04 449.186C1775.79 447.456 1771.8 441.03 1770.05 440.288C1766.07 450.174 1759.58 460.555 1748.12 476.373C1741.39 485.518 1733.41 493.427 1720.95 497.876C1715.22 499.111 1709.73 496.64 1707.24 493.18C1705 489.967 1705.5 485.518 1705.5 481.069C1714.22 471.43 1725.44 462.78 1730.92 450.422C1743.13 434.851 1744.63 415.078 1745.88 408.405C1745.63 407.169 1741.64 406.675 1739.64 407.663C1727.18 421.01 1718.21 443.749 1701.76 453.141C1698.02 453.882 1694.03 453.388 1692.54 450.916C1691.04 446.962 1688.3 440.783 1689.79 436.334V432.379C1690.54 430.649 1692.04 428.672 1691.79 426.447C1693.28 420.021 1697.77 416.067 1700.01 410.382C1698.52 406.922 1702.26 407.664 1703.25 406.181C1712.23 395.8 1723.94 387.644 1727.43 372.814L1727.93 372.814C1728.68 365.152 1725.19 358.232 1721.95 352.053C1721.2 344.886 1730.92 346.616 1735.66 343.897C1746.87 340.684 1756.59 346.863 1761.58 353.783Z" fill="white"/>
<path d="M584.899 364.467C622.287 394.62 652.446 429.469 680.861 466.048C681.608 467.779 682.107 469.262 681.858 471.486C681.11 473.71 678.867 475.935 678.617 478.654C675.377 482.361 673.632 487.057 670.641 490.517C665.656 492.494 663.662 487.551 661.17 485.574C635.746 452.455 605.088 422.055 573.433 393.632C569.944 391.654 571.938 386.217 571.688 382.509L572.187 382.51C572.935 375.836 575.926 371.882 577.92 366.444C578.418 364.467 582.406 361.995 584.899 364.467Z" fill="black"/>
<path d="M1158.17 372.361C1162.16 375.327 1167.39 378.046 1168.14 383.73C1159.91 389.415 1145.46 391.392 1148.45 405.233C1149.94 407.704 1152.44 409.682 1155.93 410.671C1161.66 410.918 1164.9 406.222 1169.88 404.244C1199.55 399.548 1213.25 424.511 1225.72 440.329C1238.43 459.855 1251.64 477.897 1259.86 500.883C1264.85 508.792 1268.09 518.431 1270.83 528.07C1276.07 536.72 1277.06 548.584 1280.3 558.717C1282.05 568.851 1284.29 578.49 1285.29 589.365C1283.54 599.992 1289.28 606.666 1287.28 618.035C1284.79 624.461 1276.07 620.754 1270.08 621.249C1245.41 616.058 1221.48 607.655 1193.56 610.126C1186.33 605.43 1187.33 595.544 1182.1 589.859C1175.37 579.726 1167.89 569.345 1153.43 563.908C1145.21 563.661 1136.73 566.132 1129.01 568.357C1128.51 569.345 1127.76 572.064 1129.51 572.311C1142.72 582.939 1157.92 592.578 1156.92 613.339C1155.93 613.339 1155.68 614.575 1155.68 615.069C1155.18 625.944 1139.72 627.427 1132.75 633.853C1132 639.538 1134.24 643.245 1136.48 646.458C1146.95 657.333 1161.66 647.2 1172.88 643.492C1189.58 623.967 1226.46 628.416 1249.89 635.831C1284.54 651.896 1327.66 639.785 1352.84 617.788C1355.58 615.564 1356.32 619.271 1356.57 621.001V625.45C1357.32 631.134 1353.08 633.359 1353.33 638.549C1352.59 640.773 1351.09 642.751 1351.09 644.728C1335.39 685.509 1302.49 719.122 1250.14 728.514C1226.21 731.48 1202.29 728.02 1182.1 717.392C1177.86 716.651 1178.36 720.111 1176.61 721.841C1161.91 753.724 1136.73 778.687 1101.59 796.235C1057.97 816.255 991.17 812.795 957.771 781.159C957.023 778.44 959.017 777.945 959.765 776.215C993.913 781.406 1024.82 762.128 1038.28 739.389C1046.5 727.279 1051.74 713.19 1061.96 702.563C1077.16 687.486 1095.11 672.162 1119.78 665.489C1123.27 663.512 1124.52 660.793 1124.52 656.344C1123.27 652.637 1121.53 649.424 1116.79 647.694C1080.4 645.717 1056.72 671.668 1038.53 691.688C1034.04 698.114 1030.05 704.54 1026.07 711.46L1026.07 713.438C1025.32 715.662 1022.83 717.639 1022.83 720.111C1021.08 720.852 1021.58 722.335 1021.08 723.818C1015.1 738.648 999.895 749.276 981.949 753.724C953.285 758.915 924.87 742.602 910.912 724.807C906.675 721.1 906.924 712.943 899.197 713.191C898.449 727.773 905.429 738.154 910.164 750.264C928.11 795.741 980.952 828.86 1041.27 830.837C1073.17 831.826 1102.09 823.917 1127.26 809.335C1146.95 800.19 1161.91 787.338 1174.87 772.508C1184.09 766.329 1197.3 777.452 1202.29 765.588C1207.27 761.139 1208.27 753.724 1216 751.006C1230.7 751.253 1246.4 751.5 1260.61 749.276C1263.35 750.017 1263.6 752.241 1263.35 755.454H1262.86C1233.19 820.951 1156.18 875.079 1063.95 870.135C981.699 867.664 911.161 822.928 864.301 774.98C860.313 770.531 860.314 763.116 857.821 757.185C851.59 750.511 849.347 761.139 844.112 762.869C826.416 774.485 796.256 773.25 778.559 760.645C763.355 748.534 749.147 733.952 753.883 709.977C754.88 710.472 754.631 709.236 754.631 708.248C758.121 696.384 768.838 688.228 782.796 684.768C787.034 684.026 792.518 683.037 794.013 679.083C794.013 672.162 787.782 669.444 782.298 666.972C773.076 661.288 757.871 675.376 756.625 660.299C755.379 656.097 754.631 651.401 753.883 645.717L753.634 636.077L754.132 630.146H754.631C757.622 618.282 760.613 606.913 765.598 596.532C774.571 580.22 785.538 564.896 797.752 550.314C819.437 526.834 846.106 505.826 874.272 486.3C898.698 468.999 929.606 454.664 958.519 442.306C929.107 441.812 904.68 455.653 879.257 466.034C804.98 502.613 745.16 548.584 713.255 614.822C701.541 634.842 697.802 674.634 712.757 694.901L720.234 705.776C721.73 707.259 720.982 710.472 720.982 713.438C714.003 717.886 705.528 710.966 699.297 707.753C674.122 692.677 665.648 660.546 672.129 628.416C684.591 582.445 715.25 549.078 750.893 519.667C799.995 477.897 868.539 444.037 937.333 424.264C993.664 403.009 1056.97 398.56 1113.05 375.574C1124.02 373.102 1132.75 363.463 1144.71 364.452L1158.17 372.361Z" fill="white"/>
<path d="M1706.04 369.401C1706.79 374.097 1704.04 377.31 1702.05 380.276C1695.32 387.443 1687.34 393.375 1680.61 401.037L1680.61 403.014C1679.87 405.238 1679.37 407.71 1677.37 409.193C1667.4 423.034 1666.91 450.716 1675.88 466.039C1679.87 470.982 1680.36 477.903 1684.85 482.352C1684.6 500.888 1694.32 512.505 1714.01 514.729C1719.25 519.425 1724.48 524.615 1729.72 529.311C1729.72 532.772 1726.73 533.266 1724.23 535.243C1712.27 539.198 1703.54 547.354 1696.32 555.51C1693.33 556.993 1689.59 560.206 1686.1 557.735C1671.89 541.175 1661.42 522.391 1647.21 505.831C1642.73 498.417 1636.99 492.732 1633.01 485.318L1633.01 483.34C1635 481.363 1635.25 478.15 1637.74 476.172C1641.48 469.994 1644.22 462.826 1642.98 452.693C1636.75 442.559 1629.27 434.156 1630.02 418.585V410.676C1633.75 395.599 1644.47 386.454 1656.69 377.31C1669.9 367.671 1687.59 367.918 1704.04 366.929L1706.04 369.401Z" fill="white"/>
<path d="M1819.91 498.148C1880.23 551.534 1937.81 607.144 1997.63 661.024C2025.8 689.447 2057.45 715.893 2085.62 744.316C2087.11 748.27 2093.09 749.259 2091.1 756.674C2087.86 762.358 2084.37 768.784 2076.64 771.009C2069.66 771.009 2066.17 766.066 2062.44 762.853C2037.01 739.62 2013.83 716.634 1988.66 692.166C1965.48 671.652 1943.04 651.385 1920.86 630.376C1879.98 593.303 1839.6 555.735 1799.47 517.92C1793.49 511.988 1803.21 509.27 1804.71 504.821C1809.94 502.596 1811.94 494.193 1819.91 498.148Z" fill="white"/>
<path d="M1616.79 511.247C1628 526.817 1639.47 542.141 1650.93 557.959C1655.17 559.69 1655.17 563.15 1656.17 566.61C1659.41 574.272 1667.13 578.473 1666.64 588.359C1662.65 594.291 1657.66 599.729 1650.93 603.93C1639.47 605.413 1638.47 593.55 1632.74 588.36C1617.28 565.127 1600.09 543.13 1583.39 521.133C1581.89 519.65 1582.89 516.684 1582.64 514.46C1588.62 509.022 1594.35 503.337 1601.83 498.889C1610.3 498.889 1612.8 506.303 1616.79 511.247Z" fill="white"/>
<path d="M264.581 540.652C264.83 541.394 264.083 542.629 264.831 542.876C266.575 557.459 270.563 569.817 274.551 583.657C285.518 600.958 297.981 617.271 305.458 637.043C306.206 640.256 307.951 642.975 308.698 646.188C307.701 646.188 307.702 647.177 307.951 647.918C298.978 670.162 289.506 691.418 281.53 713.662L276.795 716.875C211.242 717.616 154.163 739.119 98.8287 764.329C80.1348 772.98 64.1826 783.855 45.9872 792.999C38.5097 792.505 33.5248 786.573 27.2936 783.36C25.5488 781.63 24.3027 778.911 24.3027 775.451C21.3116 762.599 24.0532 747.028 25.7979 734.423C28.7889 731.952 29.5368 727.75 31.5308 724.29C48.4799 704.517 71.6604 688.452 94.093 672.14C126.994 649.401 166.625 628.393 207.503 615.046C211.989 615.046 212.737 617.765 213.734 621.225C212.737 624.685 214.731 625.674 214.731 628.64C218.47 642.234 224.452 653.108 233.425 662.5C234.92 664.972 238.659 665.219 241.401 664.478C244.392 662.5 244.641 659.288 244.89 655.086C243.145 654.344 244.641 652.367 243.644 651.379C235.668 636.549 235.169 609.856 240.154 593.049C238.16 571.794 243.395 552.763 256.356 540.899C257.602 538.675 264.332 536.945 264.581 540.652Z" fill="white"/>
<path d="M357.836 656.848V660.803L357.338 660.802C343.629 687.248 332.911 715.177 322.193 744.094C315.463 747.802 309.731 741.128 305.493 738.409C302.502 736.432 303.749 731.736 303.499 728.029C304.247 726.299 305.742 724.322 305.992 722.592C315.962 696.393 326.181 670.936 338.145 646.714C345.374 642.018 351.854 650.916 357.338 653.388L357.836 656.848Z" fill="white"/>
<path d="M127.232 675.847C128.478 678.071 127.98 680.543 127.731 683.261C116.265 692.159 102.556 699.821 90.8414 708.471C73.1446 721.571 55.6972 735.906 37.5018 748.016C59.6852 719.593 90.0937 696.36 120.253 673.375C123.244 669.915 126.235 673.869 127.232 675.847Z" fill="black"/>
<path d="M140.692 712.415C144.68 723.29 132.716 723.29 127.482 727.491C100.313 739.602 78.3791 754.431 52.9555 767.284V764.318C76.1359 742.321 103.304 723.29 134.461 706.73C138.449 705.742 139.446 710.191 140.692 712.415Z" fill="black"/>
<path d="M882.479 1094.54C880.984 1100.97 883.975 1103.94 885.47 1108.38C900.426 1122.72 914.882 1137.55 933.077 1150.15C937.065 1152.13 941.053 1155.59 946.786 1155.34C971.711 1144.47 996.387 1131.86 1019.57 1119.26L1024.55 1119.26C1044.99 1134.58 1061.94 1152.38 1084.87 1166.22C1087.36 1168.2 1091.85 1168.2 1093.84 1166.22C1111.04 1141.75 1127 1116.05 1141.45 1089.35C1154.16 1064.88 1169.12 1041.16 1179.59 1014.96C1181.58 1013.97 1181.83 1011.25 1182.58 1009.52C1185.32 1001.86 1189.56 996.175 1192.3 988.513C1193.55 985.794 1193.55 982.334 1195.54 980.357C1201.77 963.797 1208.5 948.227 1213.73 931.173C1223.21 906.951 1229.44 880.011 1235.92 853.318H1236.42C1236.17 849.117 1238.16 840.713 1231.68 843.679C1201.27 865.429 1164.88 886.684 1124 893.111C1044.99 907.198 967.225 886.932 907.404 846.892L903.915 846.892C899.428 848.869 900.425 854.801 901.671 861.474C906.407 928.454 909.149 974.178 882.479 1094.54Z" fill="white"/>
<path d="M1525.57 44.1337C1527.56 48.0882 1527.31 52.7841 1527.56 57.9744C1523.82 64.1534 1515.1 65.8836 1507.62 64.895C1490.42 52.7843 1463.25 52.0426 1445.31 63.9062C1440.57 69.5908 1432.35 73.2982 1431.1 80.96C1430.1 82.9373 1428.11 83.9258 1428.61 87.386C1427.86 89.1161 1426.11 90.8462 1426.11 92.8235C1424.12 101.721 1423.62 119.022 1430.1 126.437C1432.35 133.11 1438.08 136.323 1440.57 142.255C1454.03 158.567 1470.73 172.161 1486.93 186.743L1519.33 216.896C1527.31 225.794 1537.03 234.939 1546.25 243.095C1583.39 279.922 1623.52 314.771 1660.66 352.091C1663.15 359.506 1650.19 359.012 1645.21 362.472C1642.22 364.449 1638.73 365.932 1635.49 365.191C1626.01 359.259 1619.04 350.856 1611.06 343.935C1547.25 281.652 1479.95 222.334 1415.65 160.545C1401.69 148.187 1395.71 130.391 1392.96 110.372L1392.22 95.7894H1392.71L1393.21 89.8575L1393.71 89.8577C1400.69 59.7046 1418.14 34.4948 1452.54 25.5971C1479.21 20.9011 1509.61 26.3384 1525.57 44.1337Z" fill="white"/>
<path d="M1761.58 353.783C1765.82 358.479 1764.82 367.377 1767.81 373.309C1774.04 376.522 1783.51 375.533 1789.25 380.723C1797.22 387.149 1797.97 397.777 1799.71 407.911C1796.97 410.135 1801.21 411.371 1799.71 414.337V421.257L1799.22 421.257C1797.97 422.987 1799.71 426.2 1797.47 427.436C1802.7 435.098 1806.19 443.501 1804.45 456.106H1803.95C1801.71 480.081 1785.26 492.939 1764.08 503.566C1759.09 503.566 1754.11 507.521 1750.12 503.566C1751.37 498.87 1760.59 495.657 1762.58 491.703C1769.81 481.075 1773.8 465.257 1777.04 451.169C1776.54 449.686 1773.05 446.72 1771.31 445.979C1760.59 452.158 1756.35 468.717 1747.88 476.626C1739.9 484.535 1733.17 493.68 1720.71 498.129C1714.97 499.364 1709.49 496.893 1707 493.433C1704.75 490.22 1705.25 485.771 1705.25 481.322C1713.98 471.683 1725.19 463.032 1730.68 450.674C1734.42 446.967 1739.4 444.496 1740.4 438.564C1744.88 434.609 1743.14 425.465 1743.64 419.038C1743.39 417.803 1737.41 410.388 1735.91 411.377C1723.45 424.723 1717.97 444.001 1701.27 453.146C1697.53 453.888 1693.54 453.393 1692.04 450.922C1690.55 446.967 1687.81 440.788 1689.3 436.34V432.385C1690.05 430.655 1691.54 428.678 1691.3 426.453C1692.79 420.027 1702.01 407.916 1702.76 406.186C1711.73 395.806 1723.45 387.65 1726.94 372.82L1727.43 372.814C1728.18 365.153 1724.7 358.238 1721.45 352.059C1720.71 344.892 1730.43 346.621 1735.16 343.902C1746.88 340.689 1756.59 346.863 1761.58 353.783Z" fill="white"/>
<path d="M1158.17 372.361C1162.16 375.327 1167.39 378.046 1168.14 383.73C1159.91 389.415 1145.46 391.392 1148.45 405.233C1149.94 407.704 1152.44 409.682 1155.93 410.671C1161.66 410.918 1164.9 406.222 1169.88 404.244C1199.55 399.548 1213.25 424.511 1225.72 440.329C1238.43 459.855 1251.64 477.897 1259.86 500.883C1264.85 508.792 1268.09 518.431 1270.83 528.07C1276.07 536.72 1277.06 548.584 1280.3 558.717C1282.05 568.851 1284.29 578.49 1285.29 589.365C1283.54 599.992 1289.28 606.666 1287.28 618.035C1284.79 624.461 1276.07 620.754 1270.08 621.249C1245.41 616.058 1221.48 607.655 1193.56 610.126C1186.33 605.43 1187.33 595.544 1182.1 589.859C1175.37 579.726 1167.89 569.345 1153.43 563.908C1145.21 563.661 1136.73 566.132 1129.01 568.357C1128.51 569.345 1127.76 572.064 1129.51 572.311C1142.72 582.939 1157.92 592.578 1156.92 613.339C1155.93 613.339 1155.68 614.575 1155.68 615.069C1155.18 625.944 1139.72 627.427 1132.75 633.853C1132 639.538 1134.24 643.245 1136.48 646.458C1146.95 657.333 1161.66 647.2 1172.88 643.492C1189.58 623.967 1226.46 628.416 1249.89 635.831C1284.54 651.896 1327.66 639.785 1352.84 617.788C1355.58 615.564 1356.32 619.271 1356.57 621.001V625.45C1357.32 631.134 1353.08 633.359 1353.33 638.549C1352.59 640.773 1351.09 642.751 1351.09 644.728C1335.39 685.509 1302.49 719.122 1250.14 728.514C1226.21 731.48 1202.29 728.02 1182.1 717.392C1177.86 716.651 1178.36 720.111 1176.61 721.841C1161.91 753.724 1136.73 778.687 1101.59 796.235C1057.97 816.255 991.17 812.795 957.771 781.159C957.023 778.44 959.017 777.945 959.765 776.215C993.913 781.406 1024.82 762.128 1038.28 739.389C1046.5 727.279 1051.74 713.19 1061.96 702.563C1077.16 687.486 1095.11 672.162 1119.78 665.489C1123.27 663.512 1124.52 660.793 1124.52 656.344C1123.27 652.637 1121.53 649.424 1116.79 647.694C1080.4 645.717 1056.72 671.668 1038.53 691.688C1034.04 698.114 1030.05 704.54 1026.07 711.46L1026.07 713.438C1025.32 715.662 1022.83 717.639 1022.83 720.111C1021.08 720.852 1021.58 722.335 1021.08 723.818C1015.1 738.648 999.895 749.276 981.949 753.724C953.285 758.915 924.87 742.602 910.912 724.807C906.675 721.1 906.924 712.943 899.197 713.191C898.449 727.773 905.429 738.154 910.164 750.264C928.11 795.741 980.952 828.86 1041.27 830.837C1073.17 831.826 1102.09 823.917 1127.26 809.335C1146.95 800.19 1161.91 787.338 1174.87 772.508C1184.09 766.329 1197.3 777.452 1202.29 765.588C1207.27 761.139 1208.27 753.724 1216 751.006C1230.7 751.253 1246.4 751.5 1260.61 749.276C1263.35 750.017 1263.6 752.241 1263.35 755.454H1262.86C1233.19 820.951 1156.18 875.079 1063.95 870.135C981.699 867.664 911.161 822.928 864.301 774.98C860.313 770.531 860.314 763.116 857.821 757.185C851.59 750.511 849.347 761.139 844.112 762.869C826.416 774.485 796.256 773.25 778.559 760.645C763.355 748.534 749.147 733.952 753.883 709.977C754.88 710.472 754.631 709.236 754.631 708.248C758.121 696.384 768.838 688.228 782.796 684.768C787.034 684.026 792.518 683.037 794.013 679.083C794.013 672.162 787.782 669.444 782.298 666.972C773.076 661.288 757.871 675.376 756.625 660.299C755.379 656.097 754.631 651.401 753.883 645.717L753.634 636.077L754.132 630.146H754.631C757.622 618.282 760.613 606.913 765.598 596.532C774.571 580.22 785.538 564.896 797.752 550.314C819.437 526.834 846.106 505.826 874.272 486.3C898.698 468.999 929.606 454.664 958.519 442.306C929.107 441.812 904.68 455.653 879.257 466.034C804.98 502.613 745.16 548.584 713.255 614.822C701.541 634.842 697.802 674.634 712.757 694.901L720.234 705.776C721.73 707.259 720.982 710.472 720.982 713.438C714.003 717.886 705.528 710.966 699.297 707.753C674.122 692.677 665.648 660.546 672.129 628.416C684.591 582.445 715.25 549.078 750.893 519.667C799.995 477.897 868.539 444.037 937.333 424.264C993.664 403.009 1056.97 398.56 1113.05 375.574C1124.02 373.102 1132.75 363.463 1144.71 364.452L1158.17 372.361Z" fill="white"/>
<path d="M1706.04 369.401C1706.79 374.097 1704.04 377.31 1702.05 380.276C1695.32 387.443 1687.34 393.375 1680.61 401.037L1680.61 403.014C1679.87 405.238 1679.37 407.71 1677.37 409.193C1667.4 423.034 1666.91 450.716 1675.88 466.039C1679.87 470.982 1680.36 477.903 1684.85 482.352C1686.6 498.911 1696.57 510.28 1714.01 514.729C1719.25 519.425 1724.48 524.615 1729.72 529.311C1729.72 532.772 1726.73 533.266 1724.23 535.243C1712.27 539.198 1703.54 547.354 1696.32 555.51C1693.33 556.993 1689.59 560.206 1686.1 557.735C1671.89 541.175 1661.42 522.391 1647.21 505.831C1642.73 498.417 1636.99 492.732 1633.01 485.318L1633.01 483.34C1635 481.363 1635.25 478.15 1637.74 476.172C1641.48 469.994 1644.22 462.826 1642.98 452.693C1636.75 442.559 1629.27 434.156 1630.02 418.585V410.676C1633.75 395.599 1644.47 386.454 1656.69 377.31C1669.9 367.671 1687.59 367.918 1704.04 366.929L1706.04 369.401Z" fill="white"/>
<path d="M1819.91 498.148C1880.23 551.534 1937.81 607.144 1997.63 661.024C2025.8 689.447 2057.45 715.893 2085.62 744.316C2087.11 748.27 2093.09 749.259 2091.1 756.674C2087.86 762.358 2084.37 768.784 2076.64 771.009C2069.66 771.009 2066.17 766.066 2062.44 762.853C2037.01 739.62 2013.83 716.634 1988.66 692.166C1965.48 671.652 1943.04 651.385 1920.86 630.376C1879.98 593.303 1839.6 555.735 1799.47 517.92C1793.49 511.988 1803.21 509.27 1804.71 504.821C1809.94 502.596 1811.94 494.193 1819.91 498.148Z" fill="white"/>
<path d="M1616.79 511.247C1628 526.817 1639.47 542.141 1650.93 557.959C1655.17 559.69 1655.17 563.15 1656.17 566.61C1659.41 574.272 1667.13 578.473 1666.64 588.359C1662.65 594.291 1657.66 599.729 1650.93 603.93C1639.47 605.413 1638.47 593.55 1632.74 588.36C1617.28 565.127 1600.09 543.13 1583.39 521.133C1581.89 519.65 1582.89 516.684 1582.64 514.46C1588.62 509.022 1594.35 503.337 1601.83 498.889C1610.3 498.889 1612.8 506.303 1616.79 511.247Z" fill="white"/>
<path d="M264.581 540.652C264.83 541.394 264.083 542.629 264.831 542.876C266.575 557.459 270.563 569.817 274.551 583.657C285.518 600.958 297.981 617.271 305.458 637.043C306.206 640.256 307.951 642.975 308.698 646.188C307.701 646.188 307.702 647.177 307.951 647.918C298.978 670.162 289.506 691.418 281.53 713.662L276.795 716.875C211.242 717.616 154.163 739.119 98.8287 764.329C80.1348 772.98 64.1826 783.855 45.9872 792.999C38.5097 792.505 33.5248 786.573 27.2936 783.36C25.5488 781.63 24.3027 778.911 24.3027 775.451C21.3116 762.599 24.0532 747.028 25.7979 734.423C28.7889 731.952 29.5368 727.75 31.5308 724.29C48.4799 704.517 71.6604 688.452 94.093 672.14C126.994 649.401 166.625 628.393 207.503 615.046C211.989 615.046 212.737 617.765 213.734 621.225C212.737 624.685 214.731 625.674 214.731 628.64C218.47 642.234 224.452 653.108 233.425 662.5C234.92 664.972 238.659 665.219 241.401 664.478C244.392 662.5 244.641 659.288 244.89 655.086C243.145 654.344 244.641 652.367 243.644 651.379C235.668 636.549 235.169 609.856 240.154 593.049C238.16 571.794 243.395 552.763 256.356 540.899C257.602 538.675 264.332 536.945 264.581 540.652Z" fill="white"/>
<path d="M357.836 656.848V660.803L357.338 660.802C343.629 687.248 332.911 715.177 322.193 744.094C315.463 747.802 309.731 741.128 305.493 738.409C302.502 736.432 303.749 731.736 303.499 728.029C304.247 726.299 305.742 724.322 305.992 722.592C315.962 696.393 326.181 670.936 338.145 646.714C345.374 642.018 351.854 650.916 357.338 653.388L357.836 656.848Z" fill="white"/>
<path d="M127.232 675.847C128.478 678.071 127.98 680.543 127.731 683.261C116.265 692.159 102.556 699.821 90.8414 708.471C73.1446 721.571 55.6972 735.906 37.5018 748.016C59.6852 719.593 90.0937 696.36 120.253 673.375C123.244 669.915 126.235 673.869 127.232 675.847Z" fill="black"/>
<path d="M140.692 712.415C144.68 723.29 132.716 723.29 127.482 727.491C100.313 739.602 78.3791 754.431 52.9555 767.284V764.318C76.1359 742.321 103.304 723.29 134.461 706.73C138.449 705.742 139.446 710.191 140.692 712.415Z" fill="black"/>
<path d="M882.479 1094.54C880.984 1100.97 883.975 1103.94 885.47 1108.38C900.426 1122.72 914.882 1137.55 933.077 1150.15C937.065 1152.13 941.053 1155.59 946.786 1155.34C971.711 1144.47 996.387 1131.86 1019.57 1119.26L1024.55 1119.26C1044.99 1134.58 1061.94 1152.38 1084.87 1166.22C1087.36 1168.2 1091.85 1168.2 1093.84 1166.22C1111.04 1141.75 1127 1116.05 1141.45 1089.35C1154.16 1064.88 1169.12 1041.16 1179.59 1014.96C1181.58 1013.97 1181.83 1011.25 1182.58 1009.52C1185.32 1001.86 1189.56 996.175 1192.3 988.513C1193.55 985.794 1193.55 982.334 1195.54 980.357C1201.77 963.797 1208.5 948.227 1213.73 931.173C1223.21 906.951 1229.44 880.011 1235.92 853.318H1236.42C1236.17 849.117 1238.16 840.713 1231.68 843.679C1201.27 865.429 1164.88 886.684 1124 893.111C1044.99 907.198 967.225 886.932 907.404 846.892L903.915 846.892C899.428 848.869 900.425 854.801 901.671 861.474C906.407 928.454 909.149 974.178 882.479 1094.54Z" fill="white"/>
<path d="M1053.22 1023.6C1061.44 1026.32 1071.66 1018.66 1075.9 1006.54C1079.89 994.681 1076.65 982.57 1068.17 979.604C1059.7 976.638 1049.73 984.547 1045.49 996.164C1041.5 1008.52 1044.74 1020.63 1053.22 1023.6Z" fill="black"/>
<path d="M1026.05 1085.14C1034.27 1087.86 1044.49 1080.69 1048.73 1068.09C1052.72 1056.22 1049.48 1044.11 1041 1041.15C1032.78 1038.43 1022.81 1045.84 1018.57 1057.95C1014.08 1070.31 1017.32 1082.42 1026.05 1085.14Z" fill="black"/>
<path d="M989.155 898.279L974.948 984.537L1082.37 936.835L1156.65 986.267L1194.29 884.191L1169.11 895.807L1148.18 951.665L1085.12 912.367L1006.1 947.216L1009.84 905.941L989.155 898.279Z" fill="black"/>
<path d="M871.03 131.128C890.97 178.582 920.382 219.61 951.289 259.649C952.784 260.638 951.787 263.604 952.037 265.828C931.349 273.49 909.664 280.658 889.225 290.05C856.324 305.373 828.906 323.663 801.488 342.447C790.771 342.2 789.026 331.078 782.545 325.64C753.882 290.791 720.98 258.661 688.328 226.777C688.079 224.059 687.082 223.07 687.082 220.104C706.524 198.849 734.689 183.772 761.11 167.46C791.768 150.406 824.918 134.835 859.564 125.69C865.795 124.455 869.285 127.42 871.03 131.128Z" fill="white"/>
<path d="M584.899 364.467C622.287 394.62 652.446 429.469 680.861 466.048C681.608 467.779 682.107 469.262 681.858 471.486C681.11 473.71 678.867 475.935 678.617 478.654C675.377 482.361 673.632 487.057 670.641 490.517C665.656 492.494 663.662 487.551 661.17 485.574C635.746 452.455 605.088 422.055 573.433 393.632C569.944 391.654 571.938 386.217 571.688 382.509L572.187 382.51C572.935 375.836 575.926 371.882 577.92 366.444C578.418 364.467 582.406 361.995 584.899 364.467Z" fill="white"/>
<path d="M827.91 387.935C832.396 396.339 837.382 404.248 840.622 412.899L839.625 415.37C792.267 434.154 751.39 460.352 714.999 487.54H714.501C714.501 483.585 717.99 481.114 719.735 477.901C744.909 438.603 778.06 405.237 816.444 375.084C822.676 377.308 824.171 383.734 827.91 387.935Z" fill="black"/>
<path d="M981.671 463.296C983.416 464.038 981.671 466.757 983.665 467.745C983.416 471.453 980.923 473.924 978.929 476.395C969.707 474.171 954.752 471.205 947.773 479.114C937.553 488.259 930.076 499.134 926.836 512.728C925.839 512.728 926.337 514.211 926.088 514.952C926.337 520.637 922.1 523.85 924.094 529.287C924.593 530.276 923.346 532.5 925.34 532.994C923.097 533.241 925.589 537.69 922.349 535.96C918.61 531.759 916.865 526.568 917.364 520.142C916.367 516.682 917.614 511.492 915.869 508.279C917.863 505.807 916.865 501.852 917.115 498.639L917.613 498.64C919.607 482.822 928.331 472.194 938.55 462.06C949.767 453.41 973.695 450.444 981.671 463.296Z" fill="black"/>
<path d="M1223.95 483.558C1226.94 486.029 1225.7 491.714 1225.94 496.41C1222.46 500.859 1218.72 505.06 1212.73 507.038C1207 508.274 1201.27 507.532 1197.28 504.566C1193.79 500.117 1189.8 496.163 1190.3 489.242H1190.8C1191.3 482.816 1195.04 479.603 1199.52 476.143C1203.26 474.413 1208.5 472.189 1212.98 474.166C1217.47 476.143 1221.21 480.345 1223.95 483.558Z" fill="black"/>
<path d="M1023.54 570.554L1024.29 580.687C1022.54 581.923 1022.54 582.911 1022.54 584.888C1019.55 589.337 1015.06 593.292 1008.83 595.022C999.111 596.752 991.634 591.315 985.153 586.866C983.658 581.428 979.919 578.215 981.414 570.8C982.661 568.576 983.408 566.846 984.156 564.622C987.396 559.432 994.376 555.971 1001.85 555.477C1012.57 555.23 1021.05 562.15 1023.54 570.554Z" fill="black"/>
<path d="M825.164 600.735C814.945 609.385 800.987 614.823 790.02 622.732C783.29 623.968 783.04 617.788 780.049 615.317V613.34C790.518 605.431 802.732 597.275 816.44 592.084C821.176 593.32 823.17 597.769 825.164 600.735Z" fill="black"/>
<path d="M838.391 625.203C822.688 632.37 808.73 642.257 793.775 650.166C790.036 647.942 786.547 644.975 786.048 640.526C796.766 629.404 813.466 621.743 828.172 614.575C834.403 615.811 837.145 620.013 838.391 625.203Z" fill="black"/>
</svg>
