<svg width="100" height="100" viewBox="0 0 100 100" fill="none" xmlns="http://www.w3.org/2000/svg">
<rect width="100" height="100" fill="#D9E8D6"/>
<g id="Graphics">
<path d="M-960 -1330C-960 -1331.1 -959.105 -1332 -958 -1332H1193C1194.1 -1332 1195 -1331.1 1195 -1330V1129C1195 1130.1 1194.1 1131 1193 1131H-958C-959.105 1131 -960 1130.1 -960 1129V-1330Z" fill="white"/>
<path d="M-958 -1331H1193V-1333H-958V-1331ZM1194 -1330V1129H1196V-1330H1194ZM1193 1130H-958V1132H1193V1130ZM-959 1129V-1330H-961V1129H-959ZM-958 1130C-958.552 1130 -959 1129.55 -959 1129H-961C-961 1130.66 -959.657 1132 -958 1132V1130ZM1194 1129C1194 1129.55 1193.55 1130 1193 1130V1132C1194.66 1132 1196 1130.66 1196 1129H1194ZM1193 -1331C1193.55 -1331 1194 -1330.55 1194 -1330H1196C1196 -1331.66 1194.66 -1333 1193 -1333V-1331ZM-958 -1333C-959.657 -1333 -961 -1331.66 -961 -1330H-959C-959 -1330.55 -958.552 -1331 -958 -1331V-1333Z" fill="black" fill-opacity="0.2"/>
<g id="Station Icon">
<rect x="-39.5" y="-39.5" width="319" height="179" rx="4.5" fill="#D9E8D6"/>
<rect x="-39.5" y="-39.5" width="319" height="179" rx="4.5" stroke="#9747FF" stroke-dasharray="10 5"/>
<g id="Icon=Train">
<path id="Train" d="M62.7367 35.8583C61.6531 29.4045 66.6669 23.5294 73.2582 23.5294H90V28.8235C90 28.8235 80.1678 37.2976 79.3333 44.7059C78.5093 52.0205 86 62.3529 86 62.3529L86 65.8824H81.1118C82.2277 67.357 82.8889 69.1901 82.8889 71.1765C82.8889 76.0496 78.9092 80 74 80C69.0908 80 65.1111 76.0496 65.1111 71.1765C65.1111 69.1901 65.7723 67.357 66.8882 65.8824H48.2229C49.3388 67.357 50 69.1901 50 71.1765C50 76.0496 46.0203 80 41.1111 80C36.2019 80 32.2222 76.0496 32.2222 71.1765C32.2222 69.1901 32.8835 67.357 33.9993 65.8824H31.3333L24.2222 80H10L24.2222 65.8824C18.3312 65.8824 13.5556 61.1418 13.5556 55.2941C13.5556 49.4464 18.3312 44.7059 24.2222 44.7059L17.1111 23.5294L20.6667 20H34.8889L38.4444 23.5294L31.3333 44.7059H64.2222L62.7367 35.8583Z" fill="black"/>
</g>
</g>
</g>
</svg>
