<svg width="116" height="186" viewBox="0 0 116 186" fill="none" xmlns="http://www.w3.org/2000/svg">
<rect x="1.75" y="1.75" width="112" height="182" fill="#D9E8D6"/>
<rect x="1.75" y="1.75" width="112" height="182" stroke="black" stroke-width="3.5"/>
<path d="M24.9402 34.75L22.9802 34.91L22.9802 21.03L24.9402 20.71L24.9402 34.75ZM27.8538 20.71L27.9138 20.73L36.6938 30.31V21.35L38.6538 21.03V35.07L38.5938 35.05L29.8138 25.47L29.8138 34.75L27.8538 34.99L27.8538 20.71ZM50.1537 23.17C49.7937 22.9167 49.427 22.7433 49.0537 22.65C48.6803 22.5567 48.2803 22.51 47.8537 22.51C47.147 22.51 46.487 22.6633 45.8737 22.97C45.2737 23.2633 44.747 23.6567 44.2937 24.15C43.8403 24.63 43.487 25.19 43.2337 25.83C42.9803 26.47 42.8537 27.13 42.8537 27.81C42.8537 28.53 42.9803 29.2233 43.2337 29.89C43.487 30.5433 43.8337 31.1233 44.2737 31.63C44.7137 32.1233 45.227 32.5233 45.8137 32.83C46.4137 33.1233 47.0603 33.27 47.7537 33.27C48.2203 33.27 48.687 33.1967 49.1537 33.05C49.6337 32.89 50.067 32.6833 50.4537 32.43L50.0937 34.57C49.6803 34.7167 49.2803 34.8367 48.8937 34.93C48.5203 35.0233 48.127 35.07 47.7137 35.07C46.7937 35.07 45.9203 34.8833 45.0937 34.51C44.267 34.1367 43.5403 33.63 42.9137 32.99C42.3003 32.3367 41.807 31.5767 41.4337 30.71C41.0737 29.83 40.8937 28.89 40.8937 27.89C40.8937 26.9833 41.0803 26.1033 41.4537 25.25C41.827 24.3833 42.3137 23.6167 42.9137 22.95C43.527 22.27 44.2203 21.73 44.9937 21.33C45.767 20.9167 46.5603 20.71 47.3737 20.71C47.7737 20.71 48.167 20.7433 48.5537 20.81C48.9537 20.8633 49.347 20.9433 49.7337 21.05L50.1537 23.17ZM66.807 27.89C66.807 28.89 66.6136 29.83 66.227 30.71C65.8536 31.5767 65.3403 32.3367 64.687 32.99C64.047 33.63 63.287 34.1367 62.407 34.51C61.5403 34.8833 60.607 35.07 59.607 35.07C58.5936 35.07 57.647 34.8833 56.767 34.51C55.9003 34.1367 55.1403 33.6233 54.487 32.97C53.847 32.3167 53.3403 31.5567 52.967 30.69C52.5936 29.81 52.407 28.8767 52.407 27.89C52.407 26.89 52.5936 25.9567 52.967 25.09C53.3536 24.21 53.867 23.45 54.507 22.81C55.1603 22.1567 55.9203 21.6433 56.787 21.27C57.667 20.8967 58.607 20.71 59.607 20.71C60.6203 20.71 61.5603 20.9033 62.427 21.29C63.307 21.6633 64.067 22.1767 64.707 22.83C65.3603 23.47 65.8736 24.23 66.247 25.11C66.6203 25.9767 66.807 26.9033 66.807 27.89ZM59.607 33.27C60.3003 33.27 60.9603 33.13 61.587 32.85C62.227 32.5567 62.787 32.17 63.267 31.69C63.747 31.1967 64.127 30.6233 64.407 29.97C64.7003 29.3167 64.847 28.6233 64.847 27.89C64.847 27.17 64.707 26.4833 64.427 25.83C64.147 25.1767 63.767 24.61 63.287 24.13C62.8203 23.6367 62.267 23.2433 61.627 22.95C60.987 22.6567 60.307 22.51 59.587 22.51C58.907 22.51 58.247 22.65 57.607 22.93C56.9803 23.21 56.427 23.5967 55.947 24.09C55.467 24.57 55.0803 25.1367 54.787 25.79C54.507 26.4433 54.367 27.1433 54.367 27.89C54.367 28.6233 54.507 29.3167 54.787 29.97C55.067 30.6233 55.447 31.1967 55.927 31.69C56.407 32.17 56.9603 32.5567 57.587 32.85C58.227 33.13 58.9003 33.27 59.607 33.27ZM70.8134 20.71H70.8534L75.5934 31.17L80.2734 20.71H80.3134L83.1134 34.75L81.2134 34.99L79.5534 26.31H79.5134L75.6134 34.91H75.5734L71.5734 26.31H71.5334L69.9134 34.99L68.0334 34.75L70.8134 20.71ZM92.4198 21.03L92.8398 22.83H87.0598V26.71H91.6798V28.51H87.0598V32.95L93.2798 32.95L92.7198 34.75L85.0998 34.75V21.03H92.4198ZM49.847 43.03V44.83H46.647V56.75L44.687 56.99V44.83L41.127 44.83L41.747 43.03L49.847 43.03ZM56.0999 42.71L63.0799 56.67L61.1199 57.07L58.7799 52.35H53.2599L50.9399 57.07L49.0999 56.67L56.0599 42.71H56.0999ZM54.0799 50.55H57.9799L56.0199 46.61L54.0799 50.55ZM65.4998 42.71L68.7598 47.81L72.1598 42.71L73.9998 43.31L69.8398 49.35L74.4998 56.37L72.6398 57.07L68.7598 50.93L64.6598 57.07L62.9198 56.21L67.6198 49.35L63.6398 43.31L65.4998 42.71Z" fill="black"/>
<path d="M32.026 154.832C32.4593 154.832 32.858 154.897 33.222 155.027C33.586 155.148 33.898 155.326 34.158 155.56C34.4267 155.794 34.6347 156.071 34.782 156.392C34.9293 156.713 35.003 157.068 35.003 157.458C35.003 157.865 34.9467 158.247 34.834 158.602C34.7213 158.949 34.5263 159.252 34.249 159.512C33.9803 159.772 33.6207 159.976 33.17 160.123C32.7193 160.27 32.156 160.344 31.48 160.344H30.856V163.75L29.582 163.906L29.582 154.832H32.026ZM31.883 159.174C32.169 159.174 32.4247 159.148 32.65 159.096C32.8753 159.035 33.066 158.94 33.222 158.81C33.3867 158.671 33.5123 158.494 33.599 158.277C33.6857 158.052 33.729 157.779 33.729 157.458C33.729 156.973 33.56 156.609 33.222 156.366C32.8927 156.123 32.4463 156.002 31.883 156.002H30.856V159.174H31.883ZM39.4996 154.624L44.0366 163.698L42.7626 163.958L41.2416 160.89H37.6536L36.1456 163.958L34.9496 163.698L39.4736 154.624H39.4996ZM38.1866 159.72H40.7216L39.4476 157.159L38.1866 159.72ZM44.7761 154.624L47.3631 158.966L49.2351 154.624L50.4571 155.001L46.4531 163.958L45.2051 163.685L46.7651 160.318L43.5281 154.988L44.7761 154.624Z" fill="black"/>
<path d="M55.7189 154.624H55.7449L58.7739 161.891L61.7769 154.624H61.8029L63.5969 163.75L62.7909 163.854L61.5169 157.25H61.4909L58.7869 163.958H58.7609L55.9529 157.25H55.9269L54.7049 163.854L53.8989 163.75L55.7189 154.624Z" fill="black"/>
<path fill-rule="evenodd" clip-rule="evenodd" d="M63.6457 158.75H53.8539L53.7081 159.45H63.7916L63.6457 158.75ZM63.9583 160.25H53.5414L53.3955 160.95H64.1042L63.9583 160.25Z" fill="black"/>
<path d="M68.378 154.624H68.404V163.75L67.13 163.854V156.847L65.31 157.978L64.855 157.172L68.378 154.624ZM77.3566 154.832L77.0446 156.002H73.9246V157.835C74.2106 157.748 74.501 157.705 74.7956 157.705C75.2116 157.705 75.606 157.792 75.9786 157.965C76.3513 158.13 76.6806 158.355 76.9666 158.641C77.2526 158.927 77.478 159.261 77.6426 159.642C77.8073 160.015 77.8896 160.409 77.8896 160.825C77.8896 161.284 77.7986 161.705 77.6166 162.086C77.4433 162.467 77.2006 162.797 76.8886 163.074C76.5766 163.351 76.2126 163.568 75.7966 163.724C75.3806 163.88 74.9343 163.958 74.4576 163.958C73.8596 163.958 73.344 163.841 72.9106 163.607C72.4773 163.373 72.0743 163.031 71.7016 162.58L72.7416 161.878C72.9496 162.129 73.1966 162.346 73.4826 162.528C73.7686 162.701 74.0763 162.788 74.4056 162.788C74.7003 162.788 74.9776 162.745 75.2376 162.658C75.5063 162.571 75.7403 162.446 75.9396 162.281C76.1476 162.116 76.3123 161.913 76.4336 161.67C76.555 161.419 76.6156 161.137 76.6156 160.825C76.6156 160.539 76.5593 160.279 76.4466 160.045C76.334 159.802 76.178 159.594 75.9786 159.421C75.788 159.248 75.5583 159.113 75.2896 159.018C75.0296 158.923 74.7523 158.875 74.4576 158.875C74.111 158.875 73.786 158.944 73.4826 159.083C73.1793 159.213 72.902 159.391 72.6506 159.616V154.832H77.3566ZM82.5913 163.958C81.9933 163.958 81.4863 163.819 81.0703 163.542C80.6543 163.256 80.3206 162.892 80.0693 162.45C79.8179 161.999 79.6359 161.497 79.5233 160.942C79.4106 160.379 79.3543 159.824 79.3543 159.278C79.3543 158.949 79.3759 158.606 79.4193 158.251C79.4626 157.896 79.5319 157.545 79.6273 157.198C79.7313 156.851 79.8656 156.522 80.0303 156.21C80.1949 155.898 80.3943 155.625 80.6283 155.391C80.8709 155.157 81.1526 154.971 81.4733 154.832C81.7939 154.693 82.1666 154.624 82.5913 154.624C83.1979 154.624 83.7049 154.767 84.1123 155.053C84.5283 155.339 84.8619 155.707 85.1133 156.158C85.3733 156.609 85.5553 157.111 85.6593 157.666C85.7719 158.221 85.8283 158.771 85.8283 159.317C85.8283 159.811 85.7763 160.331 85.6723 160.877C85.5683 161.414 85.3906 161.913 85.1393 162.372C84.8966 162.831 84.5673 163.213 84.1513 163.516C83.7353 163.811 83.2153 163.958 82.5913 163.958ZM82.5913 162.788C83.2413 162.788 83.7309 162.489 84.0603 161.891C84.3896 161.284 84.5543 160.418 84.5543 159.291C84.5543 158.182 84.3896 157.324 84.0603 156.717C83.7396 156.102 83.2456 155.794 82.5783 155.794C81.9716 155.794 81.4949 156.084 81.1483 156.665C80.8016 157.237 80.6283 158.112 80.6283 159.291C80.6283 160.418 80.7929 161.284 81.1223 161.891C81.4516 162.489 81.9413 162.788 82.5913 162.788Z" fill="black"/>
<path d="M57.75 88.75L65.75 96.75L57.75 104.75L49.75 96.75L57.75 88.75Z" stroke="black" stroke-width="2"/>
<path d="M57.75 92.75L61.75 96.75L57.75 100.75L53.75 96.75L57.75 92.75Z" fill="black"/>
</svg>
