<svg width="116" height="186" viewBox="0 0 116 186" fill="none" xmlns="http://www.w3.org/2000/svg">
<rect x="1.75" y="1.75" width="112" height="182" fill="#D9E8D6"/>
<rect x="1.75" y="1.75" width="112" height="182" stroke="black" stroke-width="3.5"/>
<rect x="1.75" y="1.75" width="112" height="42" fill="#AAE0FA" stroke="black" stroke-width="3.5"/>
<path d="M41.017 64.624L41.056 64.637L46.763 70.864V65.04L48.037 64.832V73.958L47.998 73.945L42.291 67.718V73.75L41.017 73.906V64.624ZM53.5879 64.624L58.1249 73.698L56.8509 73.958L55.3299 70.89H51.7419L50.2339 73.958L49.0379 73.698L53.5619 64.624H53.5879ZM52.2749 69.72H54.8099L53.5359 67.159L52.2749 69.72ZM60.2698 64.624H60.2958L63.3768 71.423L66.4188 64.624H66.4448L68.2648 73.75L67.0298 73.906L65.9508 68.264H65.9248L63.3898 73.854H63.3638L60.7638 68.264H60.7378L59.6848 73.906L58.4628 73.75L60.2698 64.624ZM74.444 64.832L74.717 66.002H70.96V68.524H73.963V69.694H70.96V72.58H75.003L74.639 73.75H69.686V64.832H74.444Z" fill="black"/>
<path d="M43.2189 158.624H43.2449L46.2739 165.891L49.2769 158.624H49.3029L51.0969 167.75L50.2909 167.854L49.0169 161.25H48.9909L46.2869 167.958H46.2609L43.4529 161.25H43.4269L42.2049 167.854L41.3989 167.75L43.2189 158.624Z" fill="black"/>
<path fill-rule="evenodd" clip-rule="evenodd" d="M51.1457 162.75H41.3539L41.2081 163.45H51.2916L51.1457 162.75ZM51.4583 164.25H41.0414L40.8955 164.95H51.6042L51.4583 164.25Z" fill="black"/>
<path d="M56.878 158.624H56.904V167.75L55.63 167.854V160.847L53.81 161.978L53.355 161.172L56.878 158.624ZM63.4776 167.958C62.8796 167.958 62.3726 167.819 61.9566 167.542C61.5406 167.256 61.207 166.892 60.9556 166.45C60.7043 165.999 60.5223 165.497 60.4096 164.942C60.297 164.379 60.2406 163.824 60.2406 163.278C60.2406 162.949 60.2623 162.606 60.3056 162.251C60.349 161.896 60.4183 161.545 60.5136 161.198C60.6176 160.851 60.752 160.522 60.9166 160.21C61.0813 159.898 61.2806 159.625 61.5146 159.391C61.7573 159.157 62.039 158.971 62.3596 158.832C62.6803 158.693 63.053 158.624 63.4776 158.624C64.0843 158.624 64.5913 158.767 64.9986 159.053C65.4146 159.339 65.7483 159.707 65.9996 160.158C66.2596 160.609 66.4416 161.111 66.5456 161.666C66.6583 162.221 66.7146 162.771 66.7146 163.317C66.7146 163.811 66.6626 164.331 66.5586 164.877C66.4546 165.414 66.277 165.913 66.0256 166.372C65.783 166.831 65.4536 167.213 65.0376 167.516C64.6216 167.811 64.1016 167.958 63.4776 167.958ZM63.4776 166.788C64.1276 166.788 64.6173 166.489 64.9466 165.891C65.276 165.284 65.4406 164.418 65.4406 163.291C65.4406 162.182 65.276 161.324 64.9466 160.717C64.626 160.102 64.132 159.794 63.4646 159.794C62.858 159.794 62.3813 160.084 62.0346 160.665C61.688 161.237 61.5146 162.112 61.5146 163.291C61.5146 164.418 61.6793 165.284 62.0086 165.891C62.338 166.489 62.8276 166.788 63.4776 166.788ZM71.0913 167.958C70.4933 167.958 69.9863 167.819 69.5703 167.542C69.1543 167.256 68.8206 166.892 68.5693 166.45C68.3179 165.999 68.1359 165.497 68.0233 164.942C67.9106 164.379 67.8543 163.824 67.8543 163.278C67.8543 162.949 67.8759 162.606 67.9193 162.251C67.9626 161.896 68.0319 161.545 68.1273 161.198C68.2313 160.851 68.3656 160.522 68.5303 160.21C68.6949 159.898 68.8943 159.625 69.1283 159.391C69.3709 159.157 69.6526 158.971 69.9733 158.832C70.2939 158.693 70.6666 158.624 71.0913 158.624C71.6979 158.624 72.2049 158.767 72.6123 159.053C73.0283 159.339 73.3619 159.707 73.6133 160.158C73.8733 160.609 74.0553 161.111 74.1593 161.666C74.2719 162.221 74.3283 162.771 74.3283 163.317C74.3283 163.811 74.2763 164.331 74.1723 164.877C74.0683 165.414 73.8906 165.913 73.6393 166.372C73.3966 166.831 73.0673 167.213 72.6513 167.516C72.2353 167.811 71.7153 167.958 71.0913 167.958ZM71.0913 166.788C71.7413 166.788 72.2309 166.489 72.5603 165.891C72.8896 165.284 73.0543 164.418 73.0543 163.291C73.0543 162.182 72.8896 161.324 72.5603 160.717C72.2396 160.102 71.7456 159.794 71.0783 159.794C70.4716 159.794 69.9949 160.084 69.6483 160.665C69.3016 161.237 69.1283 162.112 69.1283 163.291C69.1283 164.418 69.2929 165.284 69.6223 165.891C69.9516 166.489 70.4413 166.788 71.0913 166.788Z" fill="black"/>
</svg>
