<svg width="116" height="186" viewBox="0 0 116 186" fill="none" xmlns="http://www.w3.org/2000/svg">
<rect x="1.75" y="1.75" width="112" height="182" fill="#D9E8D6"/>
<rect x="1.75" y="1.75" width="112" height="182" stroke="black" stroke-width="3.5"/>
<rect x="1.75" y="1.75" width="112" height="42" fill="#955235" stroke="black" stroke-width="3.5"/>
<path d="M41.017 64.624L41.056 64.637L46.763 70.864V65.04L48.037 64.832V73.958L47.998 73.945L42.291 67.718V73.75L41.017 73.906V64.624ZM53.5879 64.624L58.1249 73.698L56.8509 73.958L55.3299 70.89H51.7419L50.2339 73.958L49.0379 73.698L53.5619 64.624H53.5879ZM52.2749 69.72H54.8099L53.5359 67.159L52.2749 69.72ZM60.2698 64.624H60.2958L63.3768 71.423L66.4188 64.624H66.4448L68.2648 73.75L67.0298 73.906L65.9508 68.264H65.9248L63.3898 73.854H63.3638L60.7638 68.264H60.7378L59.6848 73.906L58.4628 73.75L60.2698 64.624ZM74.444 64.832L74.717 66.002H70.96V68.524H73.963V69.694H70.96V72.58H75.003L74.639 73.75H69.686V64.832H74.444Z" fill="black"/>
<path d="M47.2189 158.624H47.2449L50.2739 165.891L53.2769 158.624H53.3029L55.0969 167.75L54.2909 167.854L53.0169 161.25H52.9909L50.2869 167.958H50.2609L47.4529 161.25H47.4269L46.2049 167.854L45.3989 167.75L47.2189 158.624Z" fill="black"/>
<path fill-rule="evenodd" clip-rule="evenodd" d="M55.1457 162.75H45.3539L45.2081 163.45H55.2916L55.1457 162.75ZM55.4583 164.25H45.0414L44.8955 164.95H55.6042L55.4583 164.25Z" fill="black"/>
<path d="M59.89 167.958C59.4567 167.958 59.0493 167.889 58.668 167.75C58.2867 167.603 57.953 167.399 57.667 167.139C57.381 166.87 57.1557 166.554 56.991 166.19C56.8263 165.817 56.744 165.401 56.744 164.942C56.744 164.431 56.7917 163.993 56.887 163.629C56.9823 163.265 57.121 162.901 57.303 162.537C57.6497 161.835 58.057 161.168 58.525 160.535C59.0017 159.902 59.5087 159.265 60.046 158.624L61.203 159.248C60.735 159.725 60.293 160.214 59.877 160.717C59.461 161.211 59.071 161.731 58.707 162.277L58.733 162.303C58.9063 162.173 59.1187 162.065 59.37 161.978C59.63 161.891 59.8813 161.848 60.124 161.848C60.5227 161.848 60.8953 161.93 61.242 162.095C61.5973 162.251 61.905 162.468 62.165 162.745C62.425 163.022 62.6287 163.343 62.776 163.707C62.9233 164.071 62.997 164.452 62.997 164.851C62.997 165.276 62.919 165.679 62.763 166.06C62.6157 166.433 62.4033 166.762 62.126 167.048C61.8573 167.325 61.5323 167.546 61.151 167.711C60.7697 167.876 60.3493 167.958 59.89 167.958ZM59.864 166.788C60.41 166.788 60.8563 166.623 61.203 166.294C61.5497 165.956 61.723 165.488 61.723 164.89C61.723 164.647 61.684 164.409 61.606 164.175C61.528 163.941 61.411 163.733 61.255 163.551C61.1077 163.369 60.9213 163.226 60.696 163.122C60.4793 163.009 60.228 162.953 59.942 162.953C59.6733 162.953 59.422 163.005 59.188 163.109C58.954 163.204 58.7503 163.339 58.577 163.512C58.4037 163.685 58.265 163.893 58.161 164.136C58.0657 164.37 58.018 164.621 58.018 164.89C58.018 165.141 58.0613 165.384 58.148 165.618C58.2433 165.843 58.3733 166.043 58.538 166.216C58.7027 166.389 58.8977 166.528 59.123 166.632C59.3483 166.736 59.5953 166.788 59.864 166.788ZM67.4776 167.958C66.8796 167.958 66.3726 167.819 65.9566 167.542C65.5406 167.256 65.207 166.892 64.9556 166.45C64.7043 165.999 64.5223 165.497 64.4096 164.942C64.297 164.379 64.2406 163.824 64.2406 163.278C64.2406 162.949 64.2623 162.606 64.3056 162.251C64.349 161.896 64.4183 161.545 64.5136 161.198C64.6176 160.851 64.752 160.522 64.9166 160.21C65.0813 159.898 65.2806 159.625 65.5146 159.391C65.7573 159.157 66.039 158.971 66.3596 158.832C66.6803 158.693 67.053 158.624 67.4776 158.624C68.0843 158.624 68.5913 158.767 68.9986 159.053C69.4146 159.339 69.7483 159.707 69.9996 160.158C70.2596 160.609 70.4416 161.111 70.5456 161.666C70.6583 162.221 70.7146 162.771 70.7146 163.317C70.7146 163.811 70.6626 164.331 70.5586 164.877C70.4546 165.414 70.277 165.913 70.0256 166.372C69.783 166.831 69.4536 167.213 69.0376 167.516C68.6216 167.811 68.1016 167.958 67.4776 167.958ZM67.4776 166.788C68.1276 166.788 68.6173 166.489 68.9466 165.891C69.276 165.284 69.4406 164.418 69.4406 163.291C69.4406 162.182 69.276 161.324 68.9466 160.717C68.626 160.102 68.132 159.794 67.4646 159.794C66.858 159.794 66.3813 160.084 66.0346 160.665C65.688 161.237 65.5146 162.112 65.5146 163.291C65.5146 164.418 65.6793 165.284 66.0086 165.891C66.338 166.489 66.8276 166.788 67.4776 166.788Z" fill="black"/>
</svg>
