<svg width="116" height="186" viewBox="0 0 116 186" fill="none" xmlns="http://www.w3.org/2000/svg">
<rect x="1.75" y="1.75" width="112" height="182" fill="#D9E8D6"/>
<rect x="1.75" y="1.75" width="112" height="182" stroke="black" stroke-width="3.5"/>
<path d="M41.017 20.624L41.056 20.637L46.763 26.864V21.04L48.037 20.832V29.958L47.998 29.945L42.291 23.718V29.75L41.017 29.906V20.624ZM53.5879 20.624L58.1249 29.698L56.8509 29.958L55.3299 26.89L51.7419 26.89L50.2339 29.958L49.0379 29.698L53.5619 20.624H53.5879ZM52.2749 25.72L54.8099 25.72L53.5359 23.159L52.2749 25.72ZM60.2698 20.624H60.2958L63.3768 27.423L66.4188 20.624H66.4448L68.2648 29.75L67.0298 29.906L65.9508 24.264H65.9248L63.3898 29.854H63.3638L60.7638 24.264H60.7378L59.6848 29.906L58.4628 29.75L60.2698 20.624ZM74.444 20.832L74.717 22.002H70.96V24.524H73.963V25.694H70.96V28.58H75.003L74.639 29.75H69.686V20.832H74.444Z" fill="black"/>
<path d="M43.2189 154.624H43.2449L46.2739 161.891L49.2769 154.624H49.3029L51.0969 163.75L50.2909 163.854L49.0169 157.25H48.9909L46.2869 163.958H46.2609L43.4529 157.25H43.4269L42.2049 163.854L41.3989 163.75L43.2189 154.624Z" fill="black"/>
<path fill-rule="evenodd" clip-rule="evenodd" d="M51.1457 158.75H41.3539L41.2081 159.45H51.2916L51.1457 158.75ZM51.4583 160.25H41.0414L40.8955 160.95H51.6042L51.4583 160.25Z" fill="black"/>
<path d="M58.737 157.406C58.737 157.753 58.672 158.099 58.542 158.446C58.412 158.793 58.2473 159.131 58.048 159.46C57.8487 159.781 57.6277 160.088 57.385 160.383C57.1423 160.678 56.9083 160.946 56.683 161.189L55.37 162.58H58.88L58.646 163.75H52.809L56.371 159.616C56.501 159.469 56.631 159.304 56.761 159.122C56.891 158.94 57.008 158.754 57.112 158.563C57.216 158.364 57.2983 158.169 57.359 157.978C57.4283 157.779 57.463 157.588 57.463 157.406C57.463 156.903 57.307 156.509 56.995 156.223C56.683 155.937 56.267 155.794 55.747 155.794C55.4957 155.794 55.266 155.837 55.058 155.924C54.85 156.011 54.668 156.132 54.512 156.288C54.356 156.435 54.2347 156.609 54.148 156.808C54.0613 157.007 54.018 157.22 54.018 157.445C54.018 158.017 54.161 158.468 54.447 158.797C54.7417 159.118 55.11 159.3 55.552 159.343L54.746 160.357C54.174 160.175 53.7147 159.828 53.368 159.317C53.0213 158.806 52.848 158.169 52.848 157.406C52.848 156.999 52.9217 156.626 53.069 156.288C53.225 155.95 53.4373 155.66 53.706 155.417C53.9747 155.166 54.291 154.971 54.655 154.832C55.019 154.693 55.4177 154.624 55.851 154.624C56.2583 154.624 56.6353 154.689 56.982 154.819C57.3373 154.949 57.645 155.135 57.905 155.378C58.165 155.621 58.3687 155.915 58.516 156.262C58.6633 156.6 58.737 156.981 58.737 157.406ZM63.4776 163.958C62.8796 163.958 62.3726 163.819 61.9566 163.542C61.5406 163.256 61.207 162.892 60.9556 162.45C60.7043 161.999 60.5223 161.497 60.4096 160.942C60.297 160.379 60.2406 159.824 60.2406 159.278C60.2406 158.949 60.2623 158.606 60.3056 158.251C60.349 157.896 60.4183 157.545 60.5136 157.198C60.6176 156.851 60.752 156.522 60.9166 156.21C61.0813 155.898 61.2806 155.625 61.5146 155.391C61.7573 155.157 62.039 154.971 62.3596 154.832C62.6803 154.693 63.053 154.624 63.4776 154.624C64.0843 154.624 64.5913 154.767 64.9986 155.053C65.4146 155.339 65.7483 155.707 65.9996 156.158C66.2596 156.609 66.4416 157.111 66.5456 157.666C66.6583 158.221 66.7146 158.771 66.7146 159.317C66.7146 159.811 66.6626 160.331 66.5586 160.877C66.4546 161.414 66.277 161.913 66.0256 162.372C65.783 162.831 65.4536 163.213 65.0376 163.516C64.6216 163.811 64.1016 163.958 63.4776 163.958ZM63.4776 162.788C64.1276 162.788 64.6173 162.489 64.9466 161.891C65.276 161.284 65.4406 160.418 65.4406 159.291C65.4406 158.182 65.276 157.324 64.9466 156.717C64.626 156.102 64.132 155.794 63.4646 155.794C62.858 155.794 62.3813 156.084 62.0346 156.665C61.688 157.237 61.5146 158.112 61.5146 159.291C61.5146 160.418 61.6793 161.284 62.0086 161.891C62.338 162.489 62.8276 162.788 63.4776 162.788ZM71.0913 163.958C70.4933 163.958 69.9863 163.819 69.5703 163.542C69.1543 163.256 68.8206 162.892 68.5693 162.45C68.3179 161.999 68.1359 161.497 68.0233 160.942C67.9106 160.379 67.8543 159.824 67.8543 159.278C67.8543 158.949 67.8759 158.606 67.9193 158.251C67.9626 157.896 68.0319 157.545 68.1273 157.198C68.2313 156.851 68.3656 156.522 68.5303 156.21C68.6949 155.898 68.8943 155.625 69.1283 155.391C69.3709 155.157 69.6526 154.971 69.9733 154.832C70.2939 154.693 70.6666 154.624 71.0913 154.624C71.6979 154.624 72.2049 154.767 72.6123 155.053C73.0283 155.339 73.3619 155.707 73.6133 156.158C73.8733 156.609 74.0553 157.111 74.1593 157.666C74.2719 158.221 74.3283 158.771 74.3283 159.317C74.3283 159.811 74.2763 160.331 74.1723 160.877C74.0683 161.414 73.8906 161.913 73.6393 162.372C73.3966 162.831 73.0673 163.213 72.6513 163.516C72.2353 163.811 71.7153 163.958 71.0913 163.958ZM71.0913 162.788C71.7413 162.788 72.2309 162.489 72.5603 161.891C72.8896 161.284 73.0543 160.418 73.0543 159.291C73.0543 158.182 72.8896 157.324 72.5603 156.717C72.2396 156.102 71.7456 155.794 71.0783 155.794C70.4716 155.794 69.9949 156.084 69.6483 156.665C69.3016 157.237 69.1283 158.112 69.1283 159.291C69.1283 160.418 69.2929 161.284 69.6223 161.891C69.9516 162.489 70.4413 162.788 71.0913 162.788Z" fill="black"/>
<path d="M70.4867 85.6083C69.4031 79.1545 74.4169 73.2794 81.0082 73.2794H97.75V78.5735C97.75 78.5735 87.9178 87.0476 87.0833 94.4559C86.2593 101.771 93.75 112.103 93.75 112.103L93.75 115.632H88.8618C89.9777 117.107 90.6389 118.94 90.6389 120.926C90.6389 125.8 86.6592 129.75 81.75 129.75C76.8408 129.75 72.8611 125.8 72.8611 120.926C72.8611 118.94 73.5223 117.107 74.6382 115.632L55.9729 115.632C57.0888 117.107 57.75 118.94 57.75 120.926C57.75 125.8 53.7703 129.75 48.8611 129.75C43.9519 129.75 39.9722 125.8 39.9722 120.926C39.9722 118.94 40.6335 117.107 41.7493 115.632H39.0833L31.9722 129.75H17.75L31.9722 115.632C26.0812 115.632 21.3056 110.892 21.3056 105.044C21.3056 99.1964 26.0812 94.4559 31.9722 94.4559L24.8611 73.2794L28.4167 69.75H42.6389L46.1944 73.2794L39.0833 94.4559L71.9722 94.4559L70.4867 85.6083Z" fill="black"/>
</svg>
