<svg width="186" height="116" viewBox="0 0 186 116" fill="none" xmlns="http://www.w3.org/2000/svg">
<rect x="1.75" y="113.75" width="112" height="182" transform="rotate(-90 1.75 113.75)" fill="#D9E8D6"/>
<rect x="1.75" y="113.75" width="112" height="182" transform="rotate(-90 1.75 113.75)" stroke="black" stroke-width="3.5"/>
<rect x="1.75" y="113.75" width="112" height="42" transform="rotate(-90 1.75 113.75)" fill="#0072BB" stroke="black" stroke-width="3.5"/>
<path d="M64.624 74.483L64.637 74.444L70.864 68.737H65.04L64.832 67.463H73.958L73.945 67.502L67.718 73.209H73.75L73.906 74.483H64.624ZM64.624 61.9121L73.698 57.3751L73.958 58.6491L70.89 60.1701V63.7581L73.958 65.2661L73.698 66.4621L64.624 61.9381V61.9121ZM69.72 63.2251V60.6901L67.159 61.9641L69.72 63.2251ZM64.624 55.2302V55.2042L71.423 52.1232L64.624 49.0812V49.0552L73.75 47.2352L73.906 48.4702L68.264 49.5492V49.5752L73.854 52.1102V52.1362L68.264 54.7362V54.7622L73.906 55.8152L73.75 57.0372L64.624 55.2302ZM64.832 41.056L66.002 40.783V44.54H68.524V41.537H69.694V44.54H72.58V40.497L73.75 40.861V45.814H64.832V41.056Z" fill="black"/>
<path d="M158.624 72.2811V72.2551L165.891 69.2261L158.624 66.2231V66.1971L167.75 64.4031L167.854 65.2091L161.25 66.4831V66.5091L167.958 69.2131V69.2391L161.25 72.0471V72.0731L167.854 73.2951L167.75 74.1011L158.624 72.2811Z" fill="black"/>
<path fill-rule="evenodd" clip-rule="evenodd" d="M162.75 64.3543V74.1461L163.45 74.2919V64.2084L162.75 64.3543ZM164.25 64.0417V74.4586L164.95 74.6045V63.8958L164.25 64.0417Z" fill="black"/>
<path d="M158.624 57.985H164.591V56.503L165.579 56.711V57.985H167.75L167.854 59.181H165.579V63.094L158.624 58.011V57.985ZM164.591 61.17V59.181H161.718V59.22L164.591 61.17ZM167.958 52.0224C167.958 52.6204 167.819 53.1274 167.542 53.5434C167.256 53.9594 166.892 54.293 166.45 54.5444C165.999 54.7957 165.497 54.9777 164.942 55.0904C164.379 55.203 163.824 55.2594 163.278 55.2594C162.949 55.2594 162.606 55.2377 162.251 55.1944C161.896 55.151 161.545 55.0817 161.198 54.9864C160.851 54.8824 160.522 54.748 160.21 54.5834C159.898 54.4187 159.625 54.2194 159.391 53.9854C159.157 53.7427 158.971 53.461 158.832 53.1404C158.693 52.8197 158.624 52.447 158.624 52.0224C158.624 51.4157 158.767 50.9087 159.053 50.5014C159.339 50.0854 159.707 49.7517 160.158 49.5004C160.609 49.2404 161.111 49.0584 161.666 48.9544C162.221 48.8417 162.771 48.7854 163.317 48.7854C163.811 48.7854 164.331 48.8374 164.877 48.9414C165.414 49.0454 165.913 49.223 166.372 49.4744C166.831 49.717 167.213 50.0464 167.516 50.4624C167.811 50.8784 167.958 51.3984 167.958 52.0224ZM166.788 52.0224C166.788 51.3724 166.489 50.8827 165.891 50.5534C165.284 50.224 164.418 50.0594 163.291 50.0594C162.182 50.0594 161.324 50.224 160.717 50.5534C160.102 50.874 159.794 51.368 159.794 52.0354C159.794 52.642 160.084 53.1187 160.665 53.4654C161.237 53.812 162.112 53.9854 163.291 53.9854C164.418 53.9854 165.284 53.8207 165.891 53.4914C166.489 53.162 166.788 52.6724 166.788 52.0224ZM167.958 44.4087C167.958 45.0067 167.819 45.5137 167.542 45.9297C167.256 46.3457 166.892 46.6794 166.45 46.9307C165.999 47.1821 165.497 47.3641 164.942 47.4767C164.379 47.5894 163.824 47.6457 163.278 47.6457C162.949 47.6457 162.606 47.6241 162.251 47.5807C161.896 47.5374 161.545 47.4681 161.198 47.3727C160.851 47.2687 160.522 47.1344 160.21 46.9697C159.898 46.8051 159.625 46.6057 159.391 46.3717C159.157 46.1291 158.971 45.8474 158.832 45.5267C158.693 45.2061 158.624 44.8334 158.624 44.4087C158.624 43.8021 158.767 43.2951 159.053 42.8877C159.339 42.4717 159.707 42.1381 160.158 41.8867C160.609 41.6267 161.111 41.4447 161.666 41.3407C162.221 41.2281 162.771 41.1717 163.317 41.1717C163.811 41.1717 164.331 41.2237 164.877 41.3277C165.414 41.4317 165.913 41.6094 166.372 41.8607C166.831 42.1034 167.213 42.4327 167.516 42.8487C167.811 43.2647 167.958 43.7847 167.958 44.4087ZM166.788 44.4087C166.788 43.7587 166.489 43.2691 165.891 42.9397C165.284 42.6104 164.418 42.4457 163.291 42.4457C162.182 42.4457 161.324 42.6104 160.717 42.9397C160.102 43.2604 159.794 43.7544 159.794 44.4217C159.794 45.0284 160.084 45.5051 160.665 45.8517C161.237 46.1984 162.112 46.3717 163.291 46.3717C164.418 46.3717 165.284 46.2071 165.891 45.8777C166.489 45.5484 166.788 45.0587 166.788 44.4087Z" fill="black"/>
</svg>
