<svg width="186" height="116" viewBox="0 0 186 116" fill="none" xmlns="http://www.w3.org/2000/svg">
<rect x="1.75" y="113.75" width="112" height="182" transform="rotate(-90 1.75 113.75)" fill="#D9E8D6"/>
<rect x="1.75" y="113.75" width="112" height="182" transform="rotate(-90 1.75 113.75)" stroke="black" stroke-width="3.5"/>
<path d="M20.624 74.483L20.637 74.444L26.864 68.737H21.04L20.832 67.463H29.958L29.945 67.502L23.718 73.209H29.75L29.906 74.483H20.624ZM20.624 61.9121L29.698 57.3751L29.958 58.6491L26.89 60.1701V63.7581L29.958 65.2661L29.698 66.4621L20.624 61.9381V61.9121ZM25.72 63.2251V60.6901L23.159 61.9641L25.72 63.2251ZM20.624 55.2302V55.2042L27.423 52.1232L20.624 49.0812V49.0552L29.75 47.2352L29.906 48.4702L24.264 49.5492V49.5752L29.854 52.1102V52.1362L24.264 54.7362V54.7622L29.906 55.8152L29.75 57.0372L20.624 55.2302ZM20.832 41.056L22.002 40.783V44.54H24.524V41.537H25.694V44.54H28.58V40.497L29.75 40.861V45.814H20.832V41.056Z" fill="black"/>
<path d="M154.624 72.2811V72.2551L161.891 69.2261L154.624 66.2231V66.1971L163.75 64.4031L163.854 65.2091L157.25 66.4831V66.5091L163.958 69.2131V69.2391L157.25 72.0471V72.0731L163.854 73.2951L163.75 74.1011L154.624 72.2811Z" fill="black"/>
<path fill-rule="evenodd" clip-rule="evenodd" d="M158.75 64.3543V74.1461L159.45 74.2919V64.2084L158.75 64.3543ZM160.25 64.0417V74.4586L160.95 74.6045V63.8958L160.25 64.0417Z" fill="black"/>
<path d="M157.406 56.763C157.753 56.763 158.099 56.828 158.446 56.958C158.793 57.088 159.131 57.2527 159.46 57.452C159.781 57.6513 160.088 57.8723 160.383 58.115C160.678 58.3577 160.946 58.5917 161.189 58.817L162.58 60.13V56.62L163.75 56.854V62.691L159.616 59.129C159.469 58.999 159.304 58.869 159.122 58.739C158.94 58.609 158.754 58.492 158.563 58.388C158.364 58.284 158.169 58.2017 157.978 58.141C157.779 58.0717 157.588 58.037 157.406 58.037C156.903 58.037 156.509 58.193 156.223 58.505C155.937 58.817 155.794 59.233 155.794 59.753C155.794 60.0043 155.837 60.234 155.924 60.442C156.011 60.65 156.132 60.832 156.288 60.988C156.435 61.144 156.609 61.2653 156.808 61.352C157.007 61.4387 157.22 61.482 157.445 61.482C158.017 61.482 158.468 61.339 158.797 61.053C159.118 60.7583 159.3 60.39 159.343 59.948L160.357 60.754C160.175 61.326 159.828 61.7853 159.317 62.132C158.806 62.4787 158.169 62.652 157.406 62.652C156.999 62.652 156.626 62.5783 156.288 62.431C155.95 62.275 155.66 62.0627 155.417 61.794C155.166 61.5253 154.971 61.209 154.832 60.845C154.693 60.481 154.624 60.0823 154.624 59.649C154.624 59.2417 154.689 58.8647 154.819 58.518C154.949 58.1627 155.135 57.855 155.378 57.595C155.621 57.335 155.915 57.1313 156.262 56.984C156.6 56.8367 156.981 56.763 157.406 56.763ZM163.958 52.0224C163.958 52.6204 163.819 53.1274 163.542 53.5434C163.256 53.9594 162.892 54.293 162.45 54.5444C161.999 54.7957 161.497 54.9777 160.942 55.0904C160.379 55.203 159.824 55.2594 159.278 55.2594C158.949 55.2594 158.606 55.2377 158.251 55.1944C157.896 55.151 157.545 55.0817 157.198 54.9864C156.851 54.8824 156.522 54.748 156.21 54.5834C155.898 54.4187 155.625 54.2194 155.391 53.9854C155.157 53.7427 154.971 53.461 154.832 53.1404C154.693 52.8197 154.624 52.447 154.624 52.0224C154.624 51.4157 154.767 50.9087 155.053 50.5014C155.339 50.0854 155.707 49.7517 156.158 49.5004C156.609 49.2404 157.111 49.0584 157.666 48.9544C158.221 48.8417 158.771 48.7854 159.317 48.7854C159.811 48.7854 160.331 48.8374 160.877 48.9414C161.414 49.0454 161.913 49.223 162.372 49.4744C162.831 49.717 163.213 50.0464 163.516 50.4624C163.811 50.8784 163.958 51.3984 163.958 52.0224ZM162.788 52.0224C162.788 51.3724 162.489 50.8827 161.891 50.5534C161.284 50.224 160.418 50.0594 159.291 50.0594C158.182 50.0594 157.324 50.224 156.717 50.5534C156.102 50.874 155.794 51.368 155.794 52.0354C155.794 52.642 156.084 53.1187 156.665 53.4654C157.237 53.812 158.112 53.9854 159.291 53.9854C160.418 53.9854 161.284 53.8207 161.891 53.4914C162.489 53.162 162.788 52.6724 162.788 52.0224ZM163.958 44.4087C163.958 45.0067 163.819 45.5137 163.542 45.9297C163.256 46.3457 162.892 46.6794 162.45 46.9307C161.999 47.1821 161.497 47.3641 160.942 47.4767C160.379 47.5894 159.824 47.6457 159.278 47.6457C158.949 47.6457 158.606 47.6241 158.251 47.5807C157.896 47.5374 157.545 47.4681 157.198 47.3727C156.851 47.2687 156.522 47.1344 156.21 46.9697C155.898 46.8051 155.625 46.6057 155.391 46.3717C155.157 46.1291 154.971 45.8474 154.832 45.5267C154.693 45.2061 154.624 44.8334 154.624 44.4087C154.624 43.8021 154.767 43.2951 155.053 42.8877C155.339 42.4717 155.707 42.1381 156.158 41.8867C156.609 41.6267 157.111 41.4447 157.666 41.3407C158.221 41.2281 158.771 41.1717 159.317 41.1717C159.811 41.1717 160.331 41.2237 160.877 41.3277C161.414 41.4317 161.913 41.6094 162.372 41.8607C162.831 42.1034 163.213 42.4327 163.516 42.8487C163.811 43.2647 163.958 43.7847 163.958 44.4087ZM162.788 44.4087C162.788 43.7587 162.489 43.2691 161.891 42.9397C161.284 42.6104 160.418 42.4457 159.291 42.4457C158.182 42.4457 157.324 42.6104 156.717 42.9397C156.102 43.2604 155.794 43.7544 155.794 44.4217C155.794 45.0284 156.084 45.5051 156.665 45.8517C157.237 46.1984 158.112 46.3717 159.291 46.3717C160.418 46.3717 161.284 46.2071 161.891 45.8777C162.489 45.5484 162.788 45.0587 162.788 44.4087Z" fill="black"/>
<path d="M85.6083 45.0133C79.1545 46.0969 73.2794 41.0831 73.2794 34.4918V17.75H78.5735C78.5735 17.75 87.0476 27.5822 94.4559 28.4167C101.771 29.2407 112.103 21.75 112.103 21.75L115.632 21.75V26.6382C117.107 25.5223 118.94 24.8611 120.926 24.8611C125.8 24.8611 129.75 28.8408 129.75 33.75C129.75 38.6592 125.8 42.6389 120.926 42.6389C118.94 42.6389 117.107 41.9777 115.632 40.8618V59.5271C117.107 58.4112 118.94 57.75 120.926 57.75C125.8 57.75 129.75 61.7297 129.75 66.6389C129.75 71.5481 125.8 75.5278 120.926 75.5278C118.94 75.5278 117.107 74.8665 115.632 73.7507V76.4167L129.75 83.5278V97.75L115.632 83.5278C115.632 89.4188 110.892 94.1944 105.044 94.1944C99.1964 94.1944 94.4559 89.4188 94.4559 83.5278L73.2794 90.6389L69.75 87.0833V72.8611L73.2794 69.3056L94.4559 76.4167V43.5278L85.6083 45.0133Z" fill="black"/>
</svg>
